G04 ================== begin FILE IDENTIFICATION RECORD ==================*
G04 Layout Name:  E:/prj_hardware/circle_led/PCB/CIRCLELED.brd*
G04 Film Name:    topsilk*
G04 File Format:  Gerber RS274X*
G04 File Origin:  Cadence Allegro 16.3-p003*
G04 Origin Date:  Mon Jul 23 16:47:02 2018*
G04 *
G04 Layer:  BOARD GEOMETRY/OUTLINE*
G04 Layer:  REF DES/SILKSCREEN_TOP*
G04 Layer:  PACKAGE GEOMETRY/SILKSCREEN_TOP*
G04 Layer:  BOARD GEOMETRY/SILKSCREEN_TOP*
G04 *
G04 Offset:    (0.000 0.000)*
G04 Mirror:    No*
G04 Mode:      Positive*
G04 Rotation:  0*
G04 FullContactRelief:  No*
G04 UndefLineWidth:     5.000*
G04 ================== end FILE IDENTIFICATION RECORD ====================*
%FSLAX55Y55*MOIN*%
%IR0*IPPOS*OFA0.00000B0.00000*MIA0B0*SFA1.00000B1.00000*%
%ADD10C,.006*%
%ADD11C,.008*%
%ADD12C,.007902*%
%ADD13C,.000098*%
%ADD14C,.007874*%
%ADD15C,.01*%
%ADD16C,.005*%
G75*
%LPD*%
G75*
G54D10*
G01X835454Y566744D02*
X836974D01*
G01X836151Y567828D02*
Y565661D01*
G01X835127Y652744D02*
X833607D01*
G01X834430Y651660D02*
Y653827D01*
G54D11*
G01X820294Y412404D02*
X820247D01*
G01X858548Y478122D02*
Y479425D01*
X817159D01*
Y412219D01*
X858548D01*
Y415213D01*
G01Y412404D02*
Y478122D01*
G54D12*
G01X833813Y532007D02*
X838693D01*
X838773Y532077D01*
G01X837043Y534876D02*
Y529327D01*
X836803Y529087D01*
X836883D01*
X837043Y529247D01*
G54D13*
G01X803612Y432000D02*
G03I-10512J0D01*
G01X803612Y701000D02*
G03I-10512J0D01*
G01X1151612Y432000D02*
G03I-10512J0D01*
G01Y701000D02*
G03I-10512J0D01*
G54D14*
G01X857898Y420697D02*
X817898D01*
G01X814025Y696202D02*
Y712667D01*
X814923Y713565D01*
X864419D01*
X864509Y713474D01*
Y668396D01*
X863612Y667498D01*
X814115D01*
X814025Y667588D01*
Y696202D01*
G01X814462Y707679D02*
Y734521D01*
X814848Y734907D01*
X863781D01*
X864730Y733958D01*
Y710151D01*
G01X849785Y676222D02*
X854163D01*
X854450Y675935D01*
G01X851879Y686218D02*
Y681364D01*
G01X850167Y683647D02*
X853974D01*
X854068Y683742D01*
G01X981864Y549527D02*
X982190D01*
Y592445D01*
X929173D01*
Y541058D01*
X930069Y540162D01*
X973964D01*
X982190Y548387D01*
Y549771D01*
G01X985610Y550423D02*
Y553517D01*
X985773Y553680D01*
G54D15*
G01X779806Y669590D02*
Y709264D01*
X784988Y714446D01*
X1150492D01*
X1153872Y711066D01*
Y423442D01*
X1150266Y419836D01*
X782623D01*
X779806Y422653D01*
Y671394D01*
X779917Y671506D01*
G01X808060Y550160D02*
Y563160D01*
G01X833060Y550160D02*
X808060D01*
G01Y563160D02*
X833060D01*
G01X822897Y648454D02*
Y657174D01*
X823025Y657303D01*
G01X833060Y563160D02*
Y550160D01*
G01X847684Y571034D02*
Y562314D01*
X847556Y562185D01*
G01X963550Y450270D02*
Y450820D01*
X895670D01*
Y450540D01*
G01X896450Y684730D02*
Y684180D01*
X964330D01*
Y684460D01*
G01X903310Y674860D02*
Y675000D01*
X908660D01*
G01X956690Y460140D02*
Y460000D01*
X951340D01*
G01X1037050Y450270D02*
Y450820D01*
X969170D01*
Y450540D01*
G01X969950Y684730D02*
Y684180D01*
X1037830D01*
Y684460D01*
G01X976810Y674860D02*
Y675000D01*
X982160D01*
G01X1030190Y460140D02*
Y460000D01*
X1024840D01*
G01X1110550Y450270D02*
Y450820D01*
X1042670D01*
Y450540D01*
G01X1050310Y674860D02*
Y675000D01*
X1055660D01*
G01X1043450Y684730D02*
Y684180D01*
X1111330D01*
Y684460D01*
G01X1103690Y460140D02*
Y460000D01*
X1098340D01*
G54D16*
G01X781800Y431100D02*
Y433600D01*
X781480Y433100D01*
G01Y431100D02*
X782120D01*
G01X781800Y700100D02*
Y702600D01*
X781480Y702100D01*
G01Y700100D02*
X782120D01*
G01X793400Y446300D02*
Y443800D01*
G01X792787Y446300D02*
X794013D01*
G01X795067Y443800D02*
Y446300D01*
X795707D01*
X795920Y446175D01*
X796080Y445883D01*
X796133Y445550D01*
X796080Y445217D01*
X795947Y444967D01*
X795707Y444842D01*
X795067D01*
G01X798120Y443800D02*
Y446300D01*
X797133Y444508D01*
X798467D01*
G01X787974Y508095D02*
X788481Y507678D01*
X789051Y507428D01*
X789557D01*
X790064Y507678D01*
X790444Y508095D01*
X790634Y508678D01*
X790507Y509262D01*
X790191Y509762D01*
X789621Y510095D01*
X788861Y510262D01*
X788417Y510595D01*
X788227Y511178D01*
X788354Y511762D01*
X788671Y512178D01*
X789114Y512428D01*
X789557D01*
X790001Y512262D01*
X790381Y511845D01*
G01X792504Y512428D02*
X793391Y507428D01*
X794404Y512428D01*
X795417Y507428D01*
X796304Y512428D01*
G01X795786Y531076D02*
X796102Y530576D01*
X796482Y530243D01*
X796926Y530076D01*
X797432Y530243D01*
X797812Y530576D01*
X798192Y531076D01*
X798319Y531743D01*
Y535076D01*
G01X800759Y531076D02*
X801139Y530493D01*
X801646Y530159D01*
X802216Y530076D01*
X802723Y530159D01*
X803229Y530576D01*
X803546Y531076D01*
X803609Y531576D01*
X803482Y532159D01*
X803039Y532576D01*
X802596Y532743D01*
X802026D01*
G01X802596D02*
X802976Y532993D01*
X803292Y533409D01*
X803419Y533909D01*
X803292Y534409D01*
X802976Y534826D01*
X802406Y535076D01*
X801836Y534993D01*
X801266Y534659D01*
G01X793400Y715300D02*
Y712800D01*
G01X792787Y715300D02*
X794013D01*
G01X795067Y712800D02*
Y715300D01*
X795707D01*
X795920Y715175D01*
X796080Y714883D01*
X796133Y714550D01*
X796080Y714217D01*
X795947Y713967D01*
X795707Y713842D01*
X795067D01*
G01X797800Y712800D02*
Y715300D01*
X797480Y714800D01*
G01Y712800D02*
X798120D01*
G01X833552Y488443D02*
Y523443D01*
X798552D01*
Y488443D01*
X833552D01*
G01X805489Y641983D02*
X805259Y642138D01*
X804991Y642242D01*
X804684D01*
X804339Y642086D01*
X804071Y641828D01*
X803879Y641518D01*
X803726Y641002D01*
X803688Y640537D01*
X803764Y640072D01*
X803879Y639762D01*
X804109Y639452D01*
X804378Y639245D01*
X804646Y639142D01*
X804914D01*
X805183Y639245D01*
X805413Y639400D01*
X805604Y639606D01*
G01X807746Y639142D02*
X808014Y639193D01*
X808321Y639348D01*
X808513Y639606D01*
X808589Y639968D01*
X808513Y640330D01*
X808283Y640640D01*
X807938Y640795D01*
X807554D01*
X807324Y640898D01*
X807133Y641156D01*
X807056Y641518D01*
X807171Y641880D01*
X807439Y642138D01*
X807746Y642242D01*
X808053Y642138D01*
X808321Y641880D01*
X808436Y641518D01*
X808359Y641156D01*
X808168Y640898D01*
X807938Y640795D01*
X807554D01*
X807209Y640640D01*
X806979Y640330D01*
X806903Y639968D01*
X806979Y639606D01*
X807171Y639348D01*
X807478Y639193D01*
X807746Y639142D01*
G01X799231Y650328D02*
X799001Y650483D01*
X798733Y650586D01*
X798426D01*
X798081Y650431D01*
X797813Y650173D01*
X797621Y649863D01*
X797468Y649346D01*
X797430Y648881D01*
X797506Y648416D01*
X797621Y648106D01*
X797851Y647796D01*
X798120Y647590D01*
X798388Y647486D01*
X798656D01*
X798925Y647590D01*
X799155Y647745D01*
X799346Y647951D01*
G01X800760Y648778D02*
X801028Y649140D01*
X801258Y649346D01*
X801565Y649450D01*
X801833Y649346D01*
X802025Y649140D01*
X802178Y648830D01*
X802216Y648468D01*
X802178Y648158D01*
X802025Y647848D01*
X801795Y647590D01*
X801526Y647486D01*
X801220Y647590D01*
X800951Y647900D01*
X800798Y648365D01*
X800760Y648881D01*
X800836Y649553D01*
X800951Y649915D01*
X801143Y650276D01*
X801411Y650535D01*
X801680Y650586D01*
X801948Y650483D01*
X802140Y650225D01*
G01X819467Y578260D02*
Y576038D01*
X819620Y575573D01*
X819927Y575263D01*
X820310Y575160D01*
X820693Y575263D01*
X821000Y575573D01*
X821153Y576038D01*
Y578260D01*
G01X822682Y577743D02*
X822912Y578053D01*
X823180Y578208D01*
X823487Y578260D01*
X823870Y578156D01*
X824138Y577898D01*
X824215Y577588D01*
X824177Y577278D01*
X824023Y577020D01*
X823257Y576503D01*
X822912Y576141D01*
X822682Y575624D01*
X822605Y575160D01*
X824215D01*
G01X828833Y642470D02*
Y642070D01*
X822333D01*
Y642570D01*
G01X828833Y646570D02*
Y647070D01*
X822333D01*
Y646570D01*
G01X827930Y649410D02*
Y648410D01*
X813930D01*
Y649410D01*
G01X827930Y656410D02*
Y657410D01*
X813930D01*
Y656410D01*
G01X857569Y490574D02*
X837569D01*
Y500574D01*
X857569D01*
Y490574D01*
G01X859281Y532002D02*
G03I-9996J0D01*
G01X839644Y575419D02*
X839414Y575574D01*
X839146Y575678D01*
X838839D01*
X838494Y575522D01*
X838226Y575264D01*
X838034Y574954D01*
X837881Y574438D01*
X837842Y573973D01*
X837919Y573508D01*
X838034Y573198D01*
X838264Y572888D01*
X838533Y572681D01*
X838801Y572578D01*
X839069D01*
X839338Y572681D01*
X839567Y572836D01*
X839759Y573042D01*
G01X841058Y573198D02*
X841287Y572836D01*
X841594Y572629D01*
X841939Y572578D01*
X842246Y572629D01*
X842552Y572888D01*
X842744Y573198D01*
X842782Y573508D01*
X842706Y573869D01*
X842438Y574128D01*
X842169Y574231D01*
X841824D01*
G01X842169D02*
X842399Y574386D01*
X842591Y574644D01*
X842668Y574954D01*
X842591Y575264D01*
X842399Y575522D01*
X842054Y575678D01*
X841709Y575626D01*
X841364Y575419D01*
G01X848400Y508183D02*
X848170Y508338D01*
X847902Y508442D01*
X847595D01*
X847250Y508286D01*
X846982Y508028D01*
X846790Y507718D01*
X846637Y507202D01*
X846598Y506737D01*
X846675Y506272D01*
X846790Y505962D01*
X847020Y505652D01*
X847288Y505445D01*
X847557Y505342D01*
X847825D01*
X848093Y505445D01*
X848324Y505600D01*
X848515Y505806D01*
G01X849928Y507925D02*
X850158Y508235D01*
X850427Y508390D01*
X850734Y508442D01*
X851117Y508338D01*
X851385Y508080D01*
X851462Y507770D01*
X851424Y507460D01*
X851270Y507202D01*
X850504Y506685D01*
X850158Y506323D01*
X849928Y505806D01*
X849852Y505342D01*
X851462D01*
G01X844679Y515030D02*
Y515430D01*
X851179D01*
Y514930D01*
G01X844679Y510930D02*
Y510430D01*
X851179D01*
Y510930D01*
G01X844679Y554477D02*
Y554877D01*
X851179D01*
Y554377D01*
G01X844679Y550377D02*
Y549877D01*
X851179D01*
Y550377D01*
G01X842651Y563078D02*
Y562078D01*
X856651D01*
Y563078D01*
G01X842651Y570078D02*
Y571078D01*
X856651D01*
Y570078D01*
G01X856952Y634580D02*
Y634180D01*
X850452D01*
Y634680D01*
G01X856952Y638680D02*
Y639180D01*
X850452D01*
Y638680D01*
G01X856952Y639709D02*
Y639309D01*
X850452D01*
Y639809D01*
G01X856952Y643809D02*
Y644309D01*
X850452D01*
Y643809D01*
G01X850357Y650234D02*
Y649734D01*
X856857D01*
Y650234D01*
G01X850472Y649037D02*
Y649437D01*
X856972D01*
Y648937D01*
G01X850472Y644937D02*
Y644437D01*
X856972D01*
Y644937D01*
G01X856784Y661123D02*
Y660723D01*
X850284D01*
Y661223D01*
G01X856784Y665223D02*
Y665723D01*
X850284D01*
Y665223D01*
G01X856897Y655714D02*
Y655314D01*
X850397D01*
Y655814D01*
G01X856897Y659814D02*
Y660314D01*
X850397D01*
Y659814D01*
G01X850357Y654334D02*
Y654734D01*
X856857D01*
Y654234D01*
G01X864819Y461263D02*
X865011Y460953D01*
X865241Y460746D01*
X865509Y460643D01*
X865816Y460746D01*
X866046Y460953D01*
X866276Y461263D01*
X866352Y461676D01*
Y463743D01*
G01X867957Y463226D02*
X868187Y463536D01*
X868456Y463691D01*
X868762Y463743D01*
X869146Y463640D01*
X869414Y463381D01*
X869491Y463071D01*
X869452Y462761D01*
X869299Y462503D01*
X868532Y461986D01*
X868187Y461624D01*
X867957Y461108D01*
X867881Y460643D01*
X869491D01*
G01X872521Y501826D02*
X873288D01*
Y500896D01*
X873058Y500586D01*
X872790Y500380D01*
X872406Y500276D01*
X872023Y500380D01*
X871754Y500586D01*
X871525Y500896D01*
X871371Y501258D01*
X871294Y501671D01*
Y502033D01*
X871371Y502343D01*
X871525Y502705D01*
X871754Y503015D01*
X871984Y503221D01*
X872291Y503376D01*
X872560D01*
X872866Y503273D01*
X873096Y503066D01*
G01X859808Y490740D02*
Y493840D01*
X860575D01*
X860881Y493685D01*
X861111Y493478D01*
X861303Y493168D01*
X861456Y492807D01*
X861494Y492290D01*
X861456Y491773D01*
X861303Y491412D01*
X861111Y491102D01*
X860881Y490895D01*
X860575Y490740D01*
X859808D01*
G01X863751D02*
Y493840D01*
X863291Y493220D01*
G01Y490740D02*
X864211D01*
G01X872670Y509724D02*
X873437D01*
Y508794D01*
X873207Y508484D01*
X872938Y508277D01*
X872555Y508174D01*
X872172Y508277D01*
X871903Y508484D01*
X871673Y508794D01*
X871520Y509155D01*
X871443Y509569D01*
Y509930D01*
X871520Y510240D01*
X871673Y510602D01*
X871903Y510912D01*
X872133Y511119D01*
X872440Y511274D01*
X872708D01*
X873015Y511170D01*
X873245Y510964D01*
G01X868395Y529331D02*
Y532431D01*
X869353D01*
X869660Y532276D01*
X869852Y532069D01*
X869928Y531656D01*
X869852Y531242D01*
X869622Y530984D01*
X869353Y530829D01*
X868395D01*
G01X869353D02*
X869928Y529331D01*
G01X871457Y529744D02*
X871763Y529486D01*
X872108Y529331D01*
X872415D01*
X872722Y529486D01*
X872952Y529744D01*
X873067Y530106D01*
X872990Y530467D01*
X872798Y530777D01*
X872453Y530984D01*
X871993Y531088D01*
X871725Y531294D01*
X871610Y531656D01*
X871687Y532018D01*
X871878Y532276D01*
X872147Y532431D01*
X872415D01*
X872683Y532328D01*
X872913Y532069D01*
G01X875362Y532431D02*
Y529331D01*
G01X874480Y532431D02*
X876243D01*
G01X869395Y522597D02*
X870353Y519497D01*
X871312Y522597D01*
G01X864325Y535152D02*
X864095Y535307D01*
X863827Y535410D01*
X863520D01*
X863175Y535255D01*
X862907Y534997D01*
X862715Y534687D01*
X862562Y534170D01*
X862524Y533705D01*
X862600Y533240D01*
X862715Y532930D01*
X862945Y532620D01*
X863214Y532414D01*
X863482Y532310D01*
X863750D01*
X864019Y532414D01*
X864249Y532569D01*
X864440Y532775D01*
G01X866582Y532310D02*
Y535410D01*
X866122Y534790D01*
G01Y532310D02*
X867042D01*
G01X868715Y541073D02*
Y537973D01*
G01X867833Y541073D02*
X869597D01*
G01X870972Y537973D02*
Y541073D01*
X871738D01*
X872045Y540918D01*
X872275Y540712D01*
X872467Y540402D01*
X872620Y540040D01*
X872658Y539523D01*
X872620Y539006D01*
X872467Y538645D01*
X872275Y538335D01*
X872045Y538128D01*
X871738Y537973D01*
X870972D01*
G01X874915D02*
X874608Y538025D01*
X874340Y538231D01*
X874110Y538542D01*
X873957Y538903D01*
X873880Y539316D01*
Y539730D01*
X873957Y540143D01*
X874110Y540505D01*
X874340Y540815D01*
X874608Y541022D01*
X874915Y541073D01*
X875222Y541022D01*
X875490Y540815D01*
X875720Y540505D01*
X875874Y540143D01*
X875950Y539730D01*
Y539316D01*
X875874Y538903D01*
X875720Y538542D01*
X875490Y538231D01*
X875222Y538025D01*
X874915Y537973D01*
G01X867970Y562677D02*
Y559577D01*
G01X867088Y562677D02*
X868852D01*
G01X871913Y562418D02*
X871683Y562574D01*
X871415Y562677D01*
X871108D01*
X870763Y562522D01*
X870495Y562264D01*
X870303Y561953D01*
X870150Y561437D01*
X870112Y560972D01*
X870188Y560507D01*
X870303Y560197D01*
X870533Y559887D01*
X870802Y559680D01*
X871070Y559577D01*
X871338D01*
X871607Y559680D01*
X871837Y559835D01*
X872028Y560042D01*
G01X873327Y559577D02*
Y562677D01*
G01X874783D02*
X873327Y560765D01*
G01X875013Y559577D02*
X873978Y561643D01*
G01X867203Y548700D02*
Y551800D01*
X868162D01*
X868468Y551645D01*
X868660Y551438D01*
X868737Y551025D01*
X868660Y550612D01*
X868430Y550353D01*
X868162Y550198D01*
X867203D01*
G01X868162D02*
X868737Y548700D01*
G01X871070Y551800D02*
Y548700D01*
G01X870188Y551800D02*
X871952D01*
G01X875013Y551542D02*
X874783Y551697D01*
X874515Y551800D01*
X874208D01*
X873863Y551645D01*
X873595Y551387D01*
X873403Y551077D01*
X873250Y550560D01*
X873212Y550095D01*
X873288Y549630D01*
X873403Y549320D01*
X873633Y549010D01*
X873902Y548803D01*
X874170Y548700D01*
X874438D01*
X874707Y548803D01*
X874937Y548958D01*
X875128Y549165D01*
G01X876427Y548700D02*
Y551800D01*
G01X877883D02*
X876427Y549888D01*
G01X878113Y548700D02*
X877078Y550767D01*
G01X858682Y553032D02*
X858452Y553187D01*
X858183Y553290D01*
X857877D01*
X857532Y553135D01*
X857263Y552877D01*
X857072Y552567D01*
X856918Y552050D01*
X856880Y551585D01*
X856957Y551120D01*
X857072Y550810D01*
X857302Y550500D01*
X857570Y550294D01*
X857838Y550190D01*
X858107D01*
X858375Y550294D01*
X858605Y550449D01*
X858797Y550655D01*
G01X861398Y550190D02*
Y553290D01*
X859980Y551069D01*
X861897D01*
G01X867374Y571766D02*
Y568666D01*
G01X866492Y571766D02*
X868255D01*
G01X869477Y568666D02*
Y571766D01*
X870474Y569182D01*
X871470Y571766D01*
Y568666D01*
G01X872769Y569079D02*
X873075Y568821D01*
X873420Y568666D01*
X873727D01*
X874034Y568821D01*
X874264Y569079D01*
X874379Y569441D01*
X874302Y569802D01*
X874110Y570112D01*
X873765Y570319D01*
X873305Y570422D01*
X873037Y570629D01*
X872922Y570991D01*
X872999Y571352D01*
X873190Y571610D01*
X873459Y571766D01*
X873727D01*
X873995Y571662D01*
X874225Y571404D01*
G01X865415Y591189D02*
X865607Y590879D01*
X865837Y590673D01*
X866105Y590569D01*
X866412Y590673D01*
X866642Y590879D01*
X866872Y591189D01*
X866949Y591602D01*
Y593669D01*
G01X868515Y590569D02*
Y593669D01*
X869474D01*
X869780Y593514D01*
X869972Y593308D01*
X870049Y592894D01*
X869972Y592481D01*
X869742Y592223D01*
X869474Y592068D01*
X868515D01*
G01X869474D02*
X870049Y590569D01*
G01X871577Y590982D02*
X871884Y590724D01*
X872229Y590569D01*
X872535D01*
X872842Y590724D01*
X873072Y590982D01*
X873187Y591344D01*
X873110Y591706D01*
X872919Y592016D01*
X872574Y592223D01*
X872114Y592326D01*
X871845Y592532D01*
X871730Y592894D01*
X871807Y593256D01*
X871999Y593514D01*
X872267Y593669D01*
X872535D01*
X872804Y593566D01*
X873034Y593308D01*
G01X875482Y593669D02*
Y590569D01*
G01X874600Y593669D02*
X876364D01*
G01X867076Y581750D02*
Y578650D01*
G01X866194Y581750D02*
X867958D01*
G01X869333Y578650D02*
Y581750D01*
X870099D01*
X870406Y581594D01*
X870636Y581388D01*
X870828Y581078D01*
X870981Y580716D01*
X871019Y580200D01*
X870981Y579683D01*
X870828Y579321D01*
X870636Y579011D01*
X870406Y578805D01*
X870099Y578650D01*
X869333D01*
G01X872816Y581750D02*
X873736D01*
G01X873276D02*
Y578650D01*
G01X872816D02*
X873736D01*
G01X864742Y630053D02*
Y633153D01*
X865509D01*
X865816Y632998D01*
X866046Y632791D01*
X866237Y632481D01*
X866391Y632119D01*
X866429Y631603D01*
X866391Y631086D01*
X866237Y630724D01*
X866046Y630414D01*
X865816Y630208D01*
X865509Y630053D01*
X864742D01*
G01X867957Y632636D02*
X868187Y632946D01*
X868456Y633101D01*
X868762Y633153D01*
X869146Y633050D01*
X869414Y632791D01*
X869491Y632481D01*
X869452Y632171D01*
X869299Y631913D01*
X868532Y631396D01*
X868187Y631034D01*
X867957Y630518D01*
X867881Y630053D01*
X869491D01*
G01X864670Y636758D02*
Y639858D01*
X865628D01*
X865935Y639703D01*
X866127Y639497D01*
X866204Y639083D01*
X866127Y638670D01*
X865897Y638412D01*
X865628Y638257D01*
X864670D01*
G01X865628D02*
X866204Y636758D01*
G01X868537D02*
Y639858D01*
X868077Y639238D01*
G01Y636758D02*
X868997D01*
G01X871560D02*
X871637Y637430D01*
X871752Y637998D01*
X871905Y638515D01*
X872097Y639083D01*
X872404Y639858D01*
X870870D01*
G01X864670Y649721D02*
Y652821D01*
X865628D01*
X865935Y652666D01*
X866127Y652459D01*
X866204Y652046D01*
X866127Y651632D01*
X865897Y651374D01*
X865628Y651219D01*
X864670D01*
G01X865628D02*
X866204Y649721D01*
G01X867808Y652304D02*
X868039Y652614D01*
X868307Y652769D01*
X868614Y652821D01*
X868997Y652718D01*
X869265Y652459D01*
X869342Y652149D01*
X869304Y651839D01*
X869150Y651581D01*
X868384Y651064D01*
X868039Y650702D01*
X867808Y650186D01*
X867732Y649721D01*
X869342D01*
G01X871637Y652821D02*
X871330Y652718D01*
X871100Y652459D01*
X870947Y652149D01*
X870832Y651736D01*
X870793Y651271D01*
X870832Y650806D01*
X870947Y650392D01*
X871100Y650082D01*
X871330Y649824D01*
X871637Y649721D01*
X871943Y649824D01*
X872174Y650082D01*
X872327Y650392D01*
X872442Y650806D01*
X872480Y651271D01*
X872442Y651736D01*
X872327Y652149D01*
X872174Y652459D01*
X871943Y652718D01*
X871637Y652821D01*
G01X864224Y643762D02*
Y646862D01*
X865182D01*
X865489Y646706D01*
X865680Y646500D01*
X865757Y646087D01*
X865680Y645673D01*
X865450Y645415D01*
X865182Y645260D01*
X864224D01*
G01X865182D02*
X865757Y643762D01*
G01X867362Y646345D02*
X867592Y646655D01*
X867860Y646810D01*
X868167Y646862D01*
X868550Y646758D01*
X868819Y646500D01*
X868895Y646190D01*
X868857Y645880D01*
X868704Y645622D01*
X867937Y645105D01*
X867592Y644743D01*
X867362Y644227D01*
X867285Y643762D01*
X868895D01*
G01X870462Y646345D02*
X870692Y646655D01*
X870960Y646810D01*
X871267Y646862D01*
X871650Y646758D01*
X871919Y646500D01*
X871995Y646190D01*
X871957Y645880D01*
X871804Y645622D01*
X871037Y645105D01*
X870692Y644743D01*
X870462Y644227D01*
X870385Y643762D01*
X871995D01*
G01X864891Y661045D02*
Y664145D01*
X865658D01*
X865964Y663990D01*
X866194Y663784D01*
X866386Y663474D01*
X866539Y663112D01*
X866578Y662595D01*
X866539Y662078D01*
X866386Y661717D01*
X866194Y661407D01*
X865964Y661200D01*
X865658Y661045D01*
X864891D01*
G01X867991Y661665D02*
X868221Y661304D01*
X868528Y661097D01*
X868873Y661045D01*
X869179Y661097D01*
X869486Y661355D01*
X869678Y661665D01*
X869716Y661975D01*
X869639Y662337D01*
X869371Y662595D01*
X869103Y662699D01*
X868758D01*
G01X869103D02*
X869333Y662854D01*
X869524Y663112D01*
X869601Y663422D01*
X869524Y663732D01*
X869333Y663990D01*
X868988Y664145D01*
X868643Y664094D01*
X868298Y663887D01*
G01X864224Y654936D02*
Y658036D01*
X865182D01*
X865489Y657881D01*
X865680Y657674D01*
X865757Y657261D01*
X865680Y656848D01*
X865450Y656589D01*
X865182Y656434D01*
X864224D01*
G01X865182D02*
X865757Y654936D01*
G01X868090D02*
Y658036D01*
X867630Y657416D01*
G01Y654936D02*
X868550D01*
G01X871190D02*
X871459Y654988D01*
X871765Y655143D01*
X871957Y655401D01*
X872034Y655763D01*
X871957Y656124D01*
X871727Y656434D01*
X871382Y656589D01*
X870999D01*
X870769Y656693D01*
X870577Y656951D01*
X870500Y657313D01*
X870615Y657674D01*
X870884Y657933D01*
X871190Y658036D01*
X871497Y657933D01*
X871765Y657674D01*
X871880Y657313D01*
X871804Y656951D01*
X871612Y656693D01*
X871382Y656589D01*
X870999D01*
X870654Y656434D01*
X870424Y656124D01*
X870347Y655763D01*
X870424Y655401D01*
X870615Y655143D01*
X870922Y654988D01*
X871190Y654936D01*
G01X889808Y442502D02*
X890308Y442819D01*
X890641Y443199D01*
X890808Y443642D01*
X890641Y444149D01*
X890308Y444529D01*
X889808Y444909D01*
X889141Y445036D01*
X885808D01*
G01X890808Y448869D02*
X885808D01*
X886808Y448109D01*
G01X890808D02*
Y449629D01*
G01X886641Y452765D02*
X886141Y453146D01*
X885891Y453589D01*
X885808Y454096D01*
X885975Y454729D01*
X886391Y455172D01*
X886891Y455299D01*
X887392Y455235D01*
X887808Y454982D01*
X888641Y453716D01*
X889225Y453146D01*
X890058Y452765D01*
X890808Y452639D01*
Y455299D01*
G01X879754Y598196D02*
X877254Y595696D01*
Y495696D01*
X887254D01*
Y595696D01*
X884754Y598196D01*
X879754D01*
G01X880148Y603705D02*
X880339Y603395D01*
X880569Y603188D01*
X880838Y603085D01*
X881144Y603188D01*
X881374Y603395D01*
X881604Y603705D01*
X881681Y604118D01*
Y606185D01*
G01X884014Y603085D02*
Y606185D01*
X883554Y605565D01*
G01Y603085D02*
X884474D01*
G01X875100Y671052D02*
X875292Y670742D01*
X875522Y670535D01*
X875791Y670432D01*
X876097Y670535D01*
X876327Y670742D01*
X876557Y671052D01*
X876634Y671465D01*
Y673532D01*
G01X878967Y670432D02*
X879236Y670483D01*
X879542Y670638D01*
X879734Y670896D01*
X879810Y671258D01*
X879734Y671620D01*
X879504Y671930D01*
X879159Y672085D01*
X878775D01*
X878546Y672188D01*
X878354Y672446D01*
X878277Y672808D01*
X878392Y673170D01*
X878660Y673428D01*
X878967Y673532D01*
X879274Y673428D01*
X879542Y673170D01*
X879657Y672808D01*
X879580Y672446D01*
X879389Y672188D01*
X879159Y672085D01*
X878775D01*
X878430Y671930D01*
X878200Y671620D01*
X878124Y671258D01*
X878200Y670896D01*
X878392Y670638D01*
X878699Y670483D01*
X878967Y670432D01*
G01X895400Y456030D02*
X963680D01*
Y421470D01*
X895400D01*
Y456030D01*
G01X897365Y467731D02*
X894265D01*
Y468689D01*
X894420Y468996D01*
X894626Y469187D01*
X895040Y469264D01*
X895453Y469187D01*
X895711Y468957D01*
X895867Y468689D01*
Y467731D01*
G01Y468689D02*
X897365Y469264D01*
G01X896745Y470754D02*
X897107Y470984D01*
X897313Y471290D01*
X897365Y471636D01*
X897313Y471942D01*
X897055Y472249D01*
X896745Y472440D01*
X896435Y472479D01*
X896073Y472402D01*
X895815Y472134D01*
X895711Y471866D01*
Y471520D01*
G01Y471866D02*
X895556Y472096D01*
X895298Y472287D01*
X894988Y472364D01*
X894678Y472287D01*
X894420Y472096D01*
X894265Y471750D01*
X894316Y471406D01*
X894523Y471060D01*
G01X897365Y474697D02*
X897313Y474966D01*
X897158Y475272D01*
X896900Y475464D01*
X896538Y475540D01*
X896176Y475464D01*
X895867Y475234D01*
X895711Y474889D01*
Y474506D01*
X895608Y474276D01*
X895350Y474084D01*
X894988Y474007D01*
X894626Y474122D01*
X894368Y474390D01*
X894265Y474697D01*
X894368Y475004D01*
X894626Y475272D01*
X894988Y475387D01*
X895350Y475310D01*
X895608Y475119D01*
X895711Y474889D01*
Y474506D01*
X895867Y474160D01*
X896176Y473931D01*
X896538Y473854D01*
X896900Y473931D01*
X897158Y474122D01*
X897313Y474429D01*
X897365Y474697D01*
G01X897428Y486107D02*
X897828D01*
Y479607D01*
X897328D01*
G01X893328Y486107D02*
X892828D01*
Y479607D01*
X893328D01*
G01X897361Y530756D02*
Y530256D01*
X903861D01*
Y530756D01*
G01X897582Y543206D02*
Y543606D01*
X904082D01*
Y543106D01*
G01X897582Y539106D02*
Y538606D01*
X904082D01*
Y539106D01*
G01X897361Y534856D02*
Y535256D01*
X903861D01*
Y534756D01*
G01X898033Y562367D02*
Y562767D01*
X904533D01*
Y562267D01*
G01X898033Y558267D02*
Y557767D01*
X904533D01*
Y558267D01*
G01X904795Y549376D02*
Y548976D01*
X898295D01*
Y549476D01*
G01X904795Y553476D02*
Y553976D01*
X898295D01*
Y553476D01*
G01X898033Y571158D02*
Y571558D01*
X904533D01*
Y571058D01*
G01X898033Y567058D02*
Y566558D01*
X904533D01*
Y567058D01*
G01X898259Y590543D02*
Y590943D01*
X904759D01*
Y590443D01*
G01X898259Y586443D02*
Y585943D01*
X904759D01*
Y586443D01*
G01X898033Y582203D02*
Y582603D01*
X904533D01*
Y582103D01*
G01X898033Y578103D02*
Y577603D01*
X904533D01*
Y578103D01*
G01X897503Y624820D02*
X897348Y624590D01*
X897244Y624321D01*
Y624015D01*
X897400Y623670D01*
X897658Y623401D01*
X897968Y623210D01*
X898484Y623056D01*
X898949Y623018D01*
X899414Y623095D01*
X899724Y623210D01*
X900034Y623440D01*
X900241Y623708D01*
X900344Y623976D01*
Y624245D01*
X900241Y624513D01*
X900086Y624743D01*
X899880Y624935D01*
G01X900344Y627076D02*
X897244D01*
X897864Y626616D01*
G01X900344D02*
Y627536D01*
G01X899724Y629333D02*
X900086Y629563D01*
X900293Y629870D01*
X900344Y630215D01*
X900293Y630521D01*
X900034Y630828D01*
X899724Y631020D01*
X899414Y631058D01*
X899053Y630981D01*
X898794Y630713D01*
X898691Y630445D01*
Y630100D01*
G01Y630445D02*
X898536Y630675D01*
X898278Y630866D01*
X897968Y630943D01*
X897658Y630866D01*
X897400Y630675D01*
X897244Y630330D01*
X897296Y629985D01*
X897503Y629640D01*
G01X896903Y636684D02*
X896503D01*
Y643184D01*
X897003D01*
G01X901003Y636684D02*
X901503D01*
Y643184D01*
X901003D01*
G01X900618Y665153D02*
X900928Y665345D01*
X901135Y665575D01*
X901238Y665843D01*
X901135Y666150D01*
X900928Y666380D01*
X900618Y666610D01*
X900205Y666687D01*
X898138D01*
G01X900877Y668368D02*
X901135Y668637D01*
X901238Y668943D01*
X901135Y669250D01*
X900825Y669518D01*
X900360Y669710D01*
X899895Y669787D01*
X899327D01*
X898862Y669710D01*
X898448Y669518D01*
X898242Y669288D01*
X898138Y669020D01*
X898242Y668713D01*
X898448Y668483D01*
X898758Y668330D01*
X899172Y668253D01*
X899533Y668330D01*
X899895Y668522D01*
X900102Y668752D01*
X900153Y669020D01*
X900050Y669327D01*
X899792Y669557D01*
X899327Y669787D01*
G01X964600Y678970D02*
X896320D01*
Y713530D01*
X964600D01*
Y678970D01*
G01X905720Y446640D02*
Y435640D01*
X953720D01*
Y446640D01*
X905720D01*
G01X910501Y489107D02*
X913501D01*
Y485107D01*
G01X904501Y489107D02*
X901501D01*
Y485107D01*
G01X905951Y498607D02*
X905644Y498658D01*
X905376Y498865D01*
X905146Y499175D01*
X904993Y499537D01*
X904916Y499950D01*
Y500364D01*
X904993Y500777D01*
X905146Y501139D01*
X905376Y501448D01*
X905644Y501655D01*
X905951Y501707D01*
X906258Y501655D01*
X906526Y501448D01*
X906756Y501139D01*
X906910Y500777D01*
X906986Y500364D01*
Y499950D01*
X906910Y499537D01*
X906756Y499175D01*
X906526Y498865D01*
X906258Y498658D01*
X905951Y498607D01*
G01X906258Y499434D02*
X906718Y498607D01*
G01X908975D02*
X909051Y499278D01*
X909166Y499847D01*
X909320Y500364D01*
X909511Y500932D01*
X909818Y501707D01*
X908284D01*
G01X912023Y532172D02*
X911793Y532328D01*
X911525Y532431D01*
X911218D01*
X910873Y532276D01*
X910605Y532018D01*
X910413Y531707D01*
X910260Y531191D01*
X910221Y530726D01*
X910298Y530261D01*
X910413Y529951D01*
X910643Y529641D01*
X910911Y529434D01*
X911180Y529331D01*
X911448D01*
X911716Y529434D01*
X911946Y529589D01*
X912138Y529796D01*
G01X914280Y529331D02*
Y532431D01*
X913820Y531811D01*
G01Y529331D02*
X914740D01*
G01X916651Y530622D02*
X916920Y530984D01*
X917150Y531191D01*
X917456Y531294D01*
X917725Y531191D01*
X917916Y530984D01*
X918070Y530674D01*
X918108Y530312D01*
X918070Y530002D01*
X917916Y529692D01*
X917686Y529434D01*
X917418Y529331D01*
X917111Y529434D01*
X916843Y529744D01*
X916690Y530209D01*
X916651Y530726D01*
X916728Y531397D01*
X916843Y531759D01*
X917035Y532121D01*
X917303Y532379D01*
X917571Y532431D01*
X917840Y532328D01*
X918031Y532069D01*
G01X908625Y539761D02*
Y542861D01*
X909583D01*
X909890Y542706D01*
X910082Y542500D01*
X910158Y542086D01*
X910082Y541673D01*
X909852Y541415D01*
X909583Y541260D01*
X908625D01*
G01X909583D02*
X910158Y539761D01*
G01X911648Y540226D02*
X911878Y539968D01*
X912147Y539813D01*
X912492Y539761D01*
X912837Y539864D01*
X913105Y540071D01*
X913297Y540433D01*
X913335Y540846D01*
X913258Y541260D01*
X913067Y541518D01*
X912798Y541724D01*
X912530Y541776D01*
X912262Y541724D01*
X911917Y541518D01*
X912032Y542861D01*
X913067D01*
G01X907582Y545125D02*
Y548225D01*
X908541D01*
X908847Y548070D01*
X909039Y547864D01*
X909116Y547450D01*
X909039Y547037D01*
X908809Y546779D01*
X908541Y546624D01*
X907582D01*
G01X908541D02*
X909116Y545125D01*
G01X911449D02*
Y548225D01*
X910989Y547605D01*
G01Y545125D02*
X911909D01*
G01X913820Y547708D02*
X914050Y548018D01*
X914319Y548174D01*
X914626Y548225D01*
X915009Y548122D01*
X915277Y547864D01*
X915354Y547554D01*
X915316Y547244D01*
X915162Y546985D01*
X914396Y546468D01*
X914050Y546107D01*
X913820Y545590D01*
X913744Y545125D01*
X915354D01*
G01X910264Y558534D02*
Y561634D01*
X911222D01*
X911529Y561479D01*
X911721Y561272D01*
X911798Y560859D01*
X911721Y560446D01*
X911491Y560187D01*
X911222Y560032D01*
X910264D01*
G01X911222D02*
X911798Y558534D01*
G01X913288Y559154D02*
X913517Y558792D01*
X913824Y558586D01*
X914169Y558534D01*
X914476Y558586D01*
X914783Y558844D01*
X914974Y559154D01*
X915013Y559464D01*
X914936Y559826D01*
X914668Y560084D01*
X914399Y560187D01*
X914054D01*
G01X914399D02*
X914629Y560342D01*
X914821Y560601D01*
X914898Y560911D01*
X914821Y561221D01*
X914629Y561479D01*
X914284Y561634D01*
X913939Y561582D01*
X913594Y561376D01*
G01X908476Y567623D02*
Y570723D01*
X909434D01*
X909741Y570568D01*
X909933Y570361D01*
X910010Y569948D01*
X909933Y569534D01*
X909703Y569276D01*
X909434Y569121D01*
X908476D01*
G01X909434D02*
X910010Y567623D01*
G01X911614Y570206D02*
X911844Y570516D01*
X912113Y570671D01*
X912420Y570723D01*
X912803Y570620D01*
X913071Y570361D01*
X913148Y570051D01*
X913110Y569741D01*
X912956Y569483D01*
X912190Y568966D01*
X911844Y568604D01*
X911614Y568088D01*
X911538Y567623D01*
X913148D01*
G01X909668Y578053D02*
Y581153D01*
X910626D01*
X910933Y580998D01*
X911124Y580792D01*
X911201Y580378D01*
X911124Y579965D01*
X910894Y579707D01*
X910626Y579552D01*
X909668D01*
G01X910626D02*
X911201Y578053D01*
G01X913994D02*
Y581153D01*
X912576Y578931D01*
X914493D01*
G01X909668Y583120D02*
Y586220D01*
X910626D01*
X910933Y586065D01*
X911124Y585858D01*
X911201Y585445D01*
X911124Y585031D01*
X910894Y584773D01*
X910626Y584618D01*
X909668D01*
G01X910626D02*
X911201Y583120D01*
G01X913534D02*
Y586220D01*
X913074Y585600D01*
G01Y583120D02*
X913994D01*
G01X908093Y622689D02*
X904993D01*
Y623647D01*
X905148Y623954D01*
X905354Y624146D01*
X905768Y624222D01*
X906181Y624146D01*
X906439Y623916D01*
X906594Y623647D01*
Y622689D01*
G01Y623647D02*
X908093Y624222D01*
G01X905510Y625827D02*
X905200Y626057D01*
X905044Y626326D01*
X904993Y626632D01*
X905096Y627016D01*
X905354Y627284D01*
X905664Y627361D01*
X905975Y627322D01*
X906233Y627169D01*
X906750Y626402D01*
X907111Y626057D01*
X907628Y625827D01*
X908093Y625751D01*
Y627361D01*
G01Y630116D02*
X904993D01*
X907215Y628697D01*
Y630614D01*
G01X909600Y643668D02*
X910000D01*
Y637168D01*
X909500D01*
G01X905500Y643668D02*
X905000D01*
Y637168D01*
X905500D01*
G01X914648Y622763D02*
X911548D01*
Y623722D01*
X911704Y624028D01*
X911910Y624220D01*
X912323Y624297D01*
X912737Y624220D01*
X912995Y623990D01*
X913150Y623722D01*
Y622763D01*
G01Y623722D02*
X914648Y624297D01*
G01X912065Y625902D02*
X911755Y626132D01*
X911600Y626400D01*
X911548Y626707D01*
X911652Y627090D01*
X911910Y627358D01*
X912220Y627435D01*
X912530Y627397D01*
X912788Y627243D01*
X913305Y626477D01*
X913667Y626132D01*
X914183Y625902D01*
X914648Y625825D01*
Y627435D01*
G01X914183Y628887D02*
X914442Y629117D01*
X914597Y629385D01*
X914648Y629730D01*
X914545Y630075D01*
X914338Y630343D01*
X913977Y630535D01*
X913563Y630573D01*
X913150Y630497D01*
X912892Y630305D01*
X912685Y630037D01*
X912633Y629768D01*
X912685Y629500D01*
X912892Y629155D01*
X911548Y629270D01*
Y630305D01*
G01X912246Y637054D02*
X911846D01*
Y643554D01*
X912346D01*
G01X954280Y688360D02*
Y699360D01*
X906280D01*
Y688360D01*
X954280D01*
G01X931038Y467881D02*
X927938D01*
Y468839D01*
X928093Y469146D01*
X928300Y469337D01*
X928713Y469414D01*
X929126Y469337D01*
X929385Y469107D01*
X929540Y468839D01*
Y467881D01*
G01Y468839D02*
X931038Y469414D01*
G01X930418Y470904D02*
X930780Y471134D01*
X930986Y471440D01*
X931038Y471786D01*
X930986Y472092D01*
X930728Y472399D01*
X930418Y472590D01*
X930108Y472629D01*
X929746Y472552D01*
X929488Y472284D01*
X929385Y472016D01*
Y471670D01*
G01Y472016D02*
X929230Y472246D01*
X928971Y472437D01*
X928661Y472514D01*
X928351Y472437D01*
X928093Y472246D01*
X927938Y471900D01*
X927990Y471556D01*
X928196Y471210D01*
G01X931038Y475307D02*
X927938D01*
X930160Y473889D01*
Y475806D01*
G01X921800Y467731D02*
X918700D01*
Y468689D01*
X918856Y468996D01*
X919062Y469187D01*
X919475Y469264D01*
X919889Y469187D01*
X920147Y468957D01*
X920302Y468689D01*
Y467731D01*
G01Y468689D02*
X921800Y469264D01*
G01X921180Y470754D02*
X921542Y470984D01*
X921749Y471290D01*
X921800Y471636D01*
X921749Y471942D01*
X921491Y472249D01*
X921180Y472440D01*
X920870Y472479D01*
X920509Y472402D01*
X920250Y472134D01*
X920147Y471866D01*
Y471520D01*
G01Y471866D02*
X919992Y472096D01*
X919734Y472287D01*
X919424Y472364D01*
X919114Y472287D01*
X918856Y472096D01*
X918700Y471750D01*
X918752Y471406D01*
X918959Y471060D01*
G01X921800Y474620D02*
X921129Y474697D01*
X920560Y474812D01*
X920044Y474966D01*
X919475Y475157D01*
X918700Y475464D01*
Y473931D01*
G01X927365Y486558D02*
X926865D01*
Y480058D01*
X927365D01*
G01X917347Y480020D02*
X916947D01*
Y486520D01*
X917447D01*
G01X921447Y480020D02*
X921947D01*
Y486520D01*
X921447D01*
G01X919126Y599628D02*
Y597407D01*
X919280Y596942D01*
X919586Y596632D01*
X919970Y596528D01*
X920353Y596632D01*
X920660Y596942D01*
X920813Y597407D01*
Y599628D01*
G01X923070Y596528D02*
Y599628D01*
X922610Y599008D01*
G01Y596528D02*
X923530D01*
G01X916346Y637054D02*
X916846D01*
Y643554D01*
X916346D01*
G01X925464Y646218D02*
X922464D01*
Y642218D01*
G01X926914Y655718D02*
X926607Y655770D01*
X926339Y655976D01*
X926109Y656286D01*
X925956Y656648D01*
X925879Y657061D01*
Y657475D01*
X925956Y657888D01*
X926109Y658250D01*
X926339Y658560D01*
X926607Y658766D01*
X926914Y658818D01*
X927221Y658766D01*
X927489Y658560D01*
X927719Y658250D01*
X927872Y657888D01*
X927949Y657475D01*
Y657061D01*
X927872Y656648D01*
X927719Y656286D01*
X927489Y655976D01*
X927221Y655770D01*
X926914Y655718D01*
G01X927221Y656545D02*
X927681Y655718D01*
G01X930014D02*
Y658818D01*
X929554Y658198D01*
G01Y655718D02*
X930474D01*
G01X931465Y486558D02*
X931865D01*
Y480058D01*
X931365D01*
G01X938312Y489558D02*
X935312D01*
Y485558D01*
G01X939762Y499058D02*
X939456Y499110D01*
X939187Y499316D01*
X938957Y499626D01*
X938804Y499988D01*
X938727Y500401D01*
Y500815D01*
X938804Y501228D01*
X938957Y501590D01*
X939187Y501900D01*
X939456Y502106D01*
X939762Y502158D01*
X940069Y502106D01*
X940337Y501900D01*
X940567Y501590D01*
X940721Y501228D01*
X940797Y500815D01*
Y500401D01*
X940721Y499988D01*
X940567Y499626D01*
X940337Y499316D01*
X940069Y499110D01*
X939762Y499058D01*
G01X940069Y499885D02*
X940529Y499058D01*
G01X942134Y500350D02*
X942402Y500711D01*
X942632Y500918D01*
X942939Y501021D01*
X943207Y500918D01*
X943399Y500711D01*
X943552Y500401D01*
X943591Y500040D01*
X943552Y499730D01*
X943399Y499420D01*
X943169Y499161D01*
X942901Y499058D01*
X942594Y499161D01*
X942326Y499471D01*
X942172Y499936D01*
X942134Y500453D01*
X942211Y501125D01*
X942326Y501486D01*
X942517Y501848D01*
X942786Y502106D01*
X943054Y502158D01*
X943322Y502055D01*
X943514Y501796D01*
G01X944312Y489558D02*
X947312D01*
Y485558D01*
G01X943554Y603170D02*
X940454D01*
Y604128D01*
X940609Y604435D01*
X940816Y604626D01*
X941229Y604703D01*
X941642Y604626D01*
X941901Y604396D01*
X942056Y604128D01*
Y603170D01*
G01Y604128D02*
X943554Y604703D01*
G01Y606960D02*
X942882Y607036D01*
X942314Y607151D01*
X941797Y607305D01*
X941229Y607496D01*
X940454Y607803D01*
Y606270D01*
G01X944671Y602045D02*
X944516Y601815D01*
X944413Y601547D01*
Y601240D01*
X944568Y600895D01*
X944826Y600627D01*
X945136Y600435D01*
X945653Y600282D01*
X946118Y600243D01*
X946583Y600320D01*
X946893Y600435D01*
X947203Y600665D01*
X947410Y600933D01*
X947513Y601202D01*
Y601470D01*
X947410Y601738D01*
X947254Y601968D01*
X947048Y602160D01*
G01X947513Y604302D02*
X944413D01*
X945033Y603842D01*
G01X947513D02*
Y604762D01*
G01Y607402D02*
X944413D01*
X945033Y606942D01*
G01X947513D02*
Y607862D01*
G01X934302Y602041D02*
X933902D01*
Y608541D01*
X934402D01*
G01X938402Y602041D02*
X938902D01*
Y608541D01*
X938402D01*
G01X943255Y622689D02*
X940155D01*
Y623647D01*
X940310Y623954D01*
X940517Y624146D01*
X940930Y624222D01*
X941344Y624146D01*
X941602Y623916D01*
X941757Y623647D01*
Y622689D01*
G01Y623647D02*
X943255Y624222D01*
G01X940672Y625827D02*
X940362Y626057D01*
X940207Y626326D01*
X940155Y626632D01*
X940258Y627016D01*
X940517Y627284D01*
X940827Y627361D01*
X941137Y627322D01*
X941395Y627169D01*
X941912Y626402D01*
X942274Y626057D01*
X942790Y625827D01*
X943255Y625751D01*
Y627361D01*
G01Y629579D02*
X942584Y629656D01*
X942015Y629771D01*
X941499Y629924D01*
X940930Y630116D01*
X940155Y630422D01*
Y628889D01*
G01X943638Y642992D02*
X944038D01*
Y636492D01*
X943538D01*
G01X939538Y642992D02*
X939038D01*
Y636492D01*
X939538D01*
G01X945324Y636308D02*
X944924D01*
Y642808D01*
X945424D01*
G01X931464Y646218D02*
X934464D01*
Y642218D01*
G01X954877Y468029D02*
X951777D01*
Y468988D01*
X951932Y469294D01*
X952139Y469486D01*
X952552Y469563D01*
X952966Y469486D01*
X953224Y469256D01*
X953379Y468988D01*
Y468029D01*
G01Y468988D02*
X954877Y469563D01*
G01X954257Y471053D02*
X954619Y471283D01*
X954825Y471589D01*
X954877Y471934D01*
X954825Y472241D01*
X954567Y472548D01*
X954257Y472739D01*
X953947Y472778D01*
X953586Y472701D01*
X953327Y472433D01*
X953224Y472164D01*
Y471819D01*
G01Y472164D02*
X953069Y472394D01*
X952811Y472586D01*
X952501Y472663D01*
X952190Y472586D01*
X951932Y472394D01*
X951777Y472049D01*
X951829Y471704D01*
X952036Y471359D01*
G01X954412Y474153D02*
X954671Y474383D01*
X954825Y474651D01*
X954877Y474996D01*
X954774Y475341D01*
X954567Y475609D01*
X954206Y475801D01*
X953792Y475839D01*
X953379Y475763D01*
X953120Y475571D01*
X952914Y475303D01*
X952862Y475034D01*
X952914Y474766D01*
X953120Y474421D01*
X951777Y474536D01*
Y475571D01*
G01X951610Y479796D02*
X951210D01*
Y486296D01*
X951710D01*
G01X955710Y479796D02*
X956210D01*
Y486296D01*
X955710D01*
G01X962328Y512431D02*
X959228D01*
Y513389D01*
X959383Y513696D01*
X959590Y513887D01*
X960003Y513964D01*
X960416Y513887D01*
X960675Y513657D01*
X960830Y513389D01*
Y512431D01*
G01Y513389D02*
X962328Y513964D01*
G01X961036Y515569D02*
X960675Y515837D01*
X960468Y516067D01*
X960365Y516374D01*
X960468Y516642D01*
X960675Y516834D01*
X960985Y516987D01*
X961346Y517026D01*
X961656Y516987D01*
X961966Y516834D01*
X962225Y516604D01*
X962328Y516336D01*
X962225Y516029D01*
X961915Y515760D01*
X961450Y515607D01*
X960933Y515569D01*
X960261Y515646D01*
X959900Y515760D01*
X959538Y515952D01*
X959280Y516220D01*
X959228Y516489D01*
X959331Y516757D01*
X959590Y516949D01*
G01X959652Y529849D02*
X959152D01*
Y523349D01*
X959652D01*
G01X950851Y608279D02*
X951251D01*
Y601779D01*
X950751D01*
G01X946751Y608279D02*
X946251D01*
Y601779D01*
X946751D01*
G01X951004Y621496D02*
X947904D01*
Y622454D01*
X948059Y622761D01*
X948265Y622953D01*
X948679Y623030D01*
X949092Y622953D01*
X949350Y622723D01*
X949505Y622454D01*
Y621496D01*
G01Y622454D02*
X951004Y623030D01*
G01X950384Y624520D02*
X950745Y624749D01*
X950952Y625056D01*
X951004Y625401D01*
X950952Y625708D01*
X950694Y626014D01*
X950384Y626206D01*
X950074Y626244D01*
X949712Y626168D01*
X949454Y625900D01*
X949350Y625631D01*
Y625286D01*
G01Y625631D02*
X949195Y625861D01*
X948937Y626053D01*
X948627Y626130D01*
X948317Y626053D01*
X948059Y625861D01*
X947904Y625516D01*
X947955Y625171D01*
X948162Y624826D01*
G01X947904Y628463D02*
X948007Y628156D01*
X948265Y627926D01*
X948575Y627773D01*
X948989Y627658D01*
X949454Y627620D01*
X949919Y627658D01*
X950332Y627773D01*
X950642Y627926D01*
X950900Y628156D01*
X951004Y628463D01*
X950900Y628769D01*
X950642Y629000D01*
X950332Y629153D01*
X949919Y629268D01*
X949454Y629306D01*
X948989Y629268D01*
X948575Y629153D01*
X948265Y629000D01*
X948007Y628769D01*
X947904Y628463D01*
G01X949424Y636308D02*
X949924D01*
Y642808D01*
X949424D01*
G01X956796Y645992D02*
X953796D01*
Y641992D01*
G01X958246Y655492D02*
X957939Y655544D01*
X957671Y655751D01*
X957441Y656061D01*
X957288Y656422D01*
X957211Y656836D01*
Y657249D01*
X957288Y657662D01*
X957441Y658024D01*
X957671Y658334D01*
X957939Y658541D01*
X958246Y658592D01*
X958553Y658541D01*
X958821Y658334D01*
X959051Y658024D01*
X959204Y657662D01*
X959281Y657249D01*
Y656836D01*
X959204Y656422D01*
X959051Y656061D01*
X958821Y655751D01*
X958553Y655544D01*
X958246Y655492D01*
G01X958553Y656319D02*
X959013Y655492D01*
G01X960503Y656112D02*
X960733Y655751D01*
X961039Y655544D01*
X961384Y655492D01*
X961691Y655544D01*
X961998Y655802D01*
X962189Y656112D01*
X962228Y656422D01*
X962151Y656784D01*
X961883Y657042D01*
X961614Y657146D01*
X961269D01*
G01X961614D02*
X961844Y657301D01*
X962036Y657559D01*
X962113Y657869D01*
X962036Y658179D01*
X961844Y658437D01*
X961499Y658592D01*
X961154Y658541D01*
X960809Y658334D01*
G01X968900Y456030D02*
X1037180D01*
Y421470D01*
X968900D01*
Y456030D01*
G01X966648Y468029D02*
X963548D01*
Y468988D01*
X963703Y469294D01*
X963910Y469486D01*
X964323Y469563D01*
X964736Y469486D01*
X964995Y469256D01*
X965150Y468988D01*
Y468029D01*
G01Y468988D02*
X966648Y469563D01*
G01Y472356D02*
X963548D01*
X965770Y470938D01*
Y472854D01*
G01X965356Y474268D02*
X964995Y474536D01*
X964788Y474766D01*
X964685Y475073D01*
X964788Y475341D01*
X964995Y475533D01*
X965305Y475686D01*
X965666Y475724D01*
X965976Y475686D01*
X966286Y475533D01*
X966545Y475303D01*
X966648Y475034D01*
X966545Y474728D01*
X966235Y474459D01*
X965770Y474306D01*
X965253Y474268D01*
X964581Y474344D01*
X964220Y474459D01*
X963858Y474651D01*
X963600Y474919D01*
X963548Y475188D01*
X963651Y475456D01*
X963910Y475648D01*
G01X967080Y486558D02*
X967480D01*
Y480058D01*
X966980D01*
G01X962980Y486558D02*
X962480D01*
Y480058D01*
X962980D01*
G01X974603Y489558D02*
X971603D01*
Y485558D01*
G01X974503Y499058D02*
X974196Y499110D01*
X973928Y499316D01*
X973698Y499626D01*
X973544Y499988D01*
X973468Y500401D01*
Y500815D01*
X973544Y501228D01*
X973698Y501590D01*
X973928Y501900D01*
X974196Y502106D01*
X974503Y502158D01*
X974809Y502106D01*
X975078Y501900D01*
X975308Y501590D01*
X975461Y501228D01*
X975538Y500815D01*
Y500401D01*
X975461Y499988D01*
X975308Y499626D01*
X975078Y499316D01*
X974809Y499110D01*
X974503Y499058D01*
G01X974809Y499885D02*
X975269Y499058D01*
G01X977603D02*
Y502158D01*
X977143Y501538D01*
G01Y499058D02*
X978063D01*
G01X980703D02*
Y502158D01*
X980243Y501538D01*
G01Y499058D02*
X981163D01*
G01X963752Y529849D02*
X964152D01*
Y523349D01*
X963652D01*
G01X978718Y621795D02*
X975618D01*
Y622753D01*
X975773Y623060D01*
X975979Y623252D01*
X976393Y623328D01*
X976806Y623252D01*
X977064Y623022D01*
X977219Y622753D01*
Y621795D01*
G01Y622753D02*
X978718Y623328D01*
G01X976134Y624933D02*
X975824Y625163D01*
X975669Y625432D01*
X975618Y625738D01*
X975721Y626122D01*
X975979Y626390D01*
X976289Y626467D01*
X976599Y626428D01*
X976858Y626275D01*
X977374Y625508D01*
X977736Y625163D01*
X978253Y624933D01*
X978718Y624857D01*
Y626467D01*
G01X977426Y628033D02*
X977064Y628302D01*
X976858Y628532D01*
X976754Y628838D01*
X976858Y629107D01*
X977064Y629298D01*
X977374Y629452D01*
X977736Y629490D01*
X978046Y629452D01*
X978356Y629298D01*
X978614Y629068D01*
X978718Y628800D01*
X978614Y628493D01*
X978304Y628225D01*
X977839Y628072D01*
X977323Y628033D01*
X976651Y628110D01*
X976289Y628225D01*
X975928Y628417D01*
X975669Y628685D01*
X975618Y628953D01*
X975721Y629222D01*
X975979Y629413D01*
G01X976054Y643218D02*
X975554D01*
Y636718D01*
X976054D01*
G01X962796Y645992D02*
X965796D01*
Y641992D01*
G01X974223Y662172D02*
X974533Y662364D01*
X974740Y662594D01*
X974843Y662862D01*
X974740Y663169D01*
X974533Y663399D01*
X974223Y663629D01*
X973810Y663706D01*
X971743D01*
G01X974843Y666039D02*
X971743D01*
X972363Y665579D01*
G01X974843D02*
Y666499D01*
G01X971743Y669139D02*
X971846Y668832D01*
X972104Y668602D01*
X972414Y668449D01*
X972828Y668334D01*
X973293Y668296D01*
X973758Y668334D01*
X974171Y668449D01*
X974481Y668602D01*
X974740Y668832D01*
X974843Y669139D01*
X974740Y669446D01*
X974481Y669676D01*
X974171Y669829D01*
X973758Y669944D01*
X973293Y669982D01*
X972828Y669944D01*
X972414Y669829D01*
X972104Y669676D01*
X971846Y669446D01*
X971743Y669139D01*
G01X1038100Y678970D02*
X969820D01*
Y713530D01*
X1038100D01*
Y678970D01*
G01X979220Y446640D02*
Y435640D01*
X1027220D01*
Y446640D01*
X979220D01*
G01X993617Y466986D02*
X990517D01*
Y467945D01*
X990672Y468252D01*
X990878Y468443D01*
X991292Y468520D01*
X991705Y468443D01*
X991963Y468213D01*
X992118Y467945D01*
Y466986D01*
G01Y467945D02*
X993617Y468520D01*
G01Y471313D02*
X990517D01*
X992739Y469895D01*
Y471812D01*
G01X992997Y473110D02*
X993358Y473340D01*
X993565Y473646D01*
X993617Y473992D01*
X993565Y474298D01*
X993307Y474605D01*
X992997Y474797D01*
X992687Y474835D01*
X992325Y474758D01*
X992067Y474490D01*
X991963Y474222D01*
Y473877D01*
G01Y474222D02*
X991808Y474452D01*
X991550Y474643D01*
X991240Y474720D01*
X990930Y474643D01*
X990672Y474452D01*
X990517Y474106D01*
X990568Y473762D01*
X990775Y473416D01*
G01X982716Y459834D02*
X983026Y460026D01*
X983233Y460256D01*
X983336Y460524D01*
X983233Y460831D01*
X983026Y461061D01*
X982716Y461291D01*
X982303Y461368D01*
X980236D01*
G01X983336Y463701D02*
X980236D01*
X980856Y463241D01*
G01X983336D02*
Y464161D01*
G01X982716Y465958D02*
X983078Y466188D01*
X983285Y466494D01*
X983336Y466840D01*
X983285Y467146D01*
X983026Y467453D01*
X982716Y467644D01*
X982406Y467683D01*
X982045Y467606D01*
X981786Y467338D01*
X981683Y467069D01*
Y466725D01*
G01Y467069D02*
X981528Y467300D01*
X981270Y467491D01*
X980960Y467568D01*
X980650Y467491D01*
X980392Y467300D01*
X980236Y466954D01*
X980288Y466610D01*
X980495Y466265D01*
G01X990380Y479345D02*
X989980D01*
Y485845D01*
X990480D01*
G01X980603Y489558D02*
X983603D01*
Y485558D01*
G01X977216Y514786D02*
X977061Y514556D01*
X976958Y514287D01*
Y513981D01*
X977113Y513636D01*
X977371Y513367D01*
X977681Y513176D01*
X978198Y513022D01*
X978663Y512984D01*
X979128Y513061D01*
X979438Y513176D01*
X979748Y513406D01*
X979955Y513674D01*
X980058Y513942D01*
Y514211D01*
X979955Y514479D01*
X979800Y514709D01*
X979593Y514901D01*
G01X979696Y516391D02*
X979955Y516659D01*
X980058Y516966D01*
X979955Y517272D01*
X979645Y517541D01*
X979180Y517732D01*
X978715Y517809D01*
X978146D01*
X977681Y517732D01*
X977268Y517541D01*
X977061Y517311D01*
X976958Y517042D01*
X977061Y516736D01*
X977268Y516506D01*
X977578Y516352D01*
X977991Y516276D01*
X978353Y516352D01*
X978715Y516544D01*
X978921Y516774D01*
X978973Y517042D01*
X978870Y517349D01*
X978611Y517579D01*
X978146Y517809D01*
G01X980813Y530371D02*
X981213D01*
Y523871D01*
X980713D01*
G01X976713Y530371D02*
X976213D01*
Y523871D01*
X976713D01*
G01X991913Y579822D02*
X991683Y579978D01*
X991414Y580081D01*
X991108D01*
X990762Y579926D01*
X990494Y579668D01*
X990302Y579357D01*
X990149Y578841D01*
X990111Y578376D01*
X990188Y577911D01*
X990302Y577601D01*
X990533Y577291D01*
X990801Y577084D01*
X991069Y576981D01*
X991338D01*
X991606Y577084D01*
X991836Y577239D01*
X992028Y577446D01*
G01X994169Y576981D02*
Y580081D01*
X993709Y579461D01*
G01Y576981D02*
X994629D01*
G01X996541Y579564D02*
X996771Y579874D01*
X997039Y580029D01*
X997346Y580081D01*
X997729Y579978D01*
X997998Y579719D01*
X998074Y579409D01*
X998036Y579099D01*
X997882Y578841D01*
X997116Y578324D01*
X996771Y577962D01*
X996541Y577446D01*
X996464Y576981D01*
X998074D01*
G01X985870Y621198D02*
X982770D01*
Y622157D01*
X982925Y622464D01*
X983131Y622655D01*
X983545Y622732D01*
X983958Y622655D01*
X984216Y622425D01*
X984371Y622157D01*
Y621198D01*
G01Y622157D02*
X985870Y622732D01*
G01X983286Y624337D02*
X982976Y624567D01*
X982821Y624835D01*
X982770Y625142D01*
X982873Y625525D01*
X983131Y625794D01*
X983441Y625870D01*
X983751Y625832D01*
X984010Y625678D01*
X984526Y624912D01*
X984888Y624567D01*
X985405Y624337D01*
X985870Y624260D01*
Y625870D01*
G01Y628165D02*
X985818Y628434D01*
X985663Y628740D01*
X985405Y628932D01*
X985043Y629008D01*
X984681Y628932D01*
X984371Y628702D01*
X984216Y628357D01*
Y627974D01*
X984113Y627744D01*
X983855Y627552D01*
X983493Y627475D01*
X983131Y627590D01*
X982873Y627858D01*
X982770Y628165D01*
X982873Y628472D01*
X983131Y628740D01*
X983493Y628855D01*
X983855Y628778D01*
X984113Y628587D01*
X984216Y628357D01*
Y627974D01*
X984371Y627628D01*
X984681Y627398D01*
X985043Y627322D01*
X985405Y627398D01*
X985663Y627590D01*
X985818Y627897D01*
X985870Y628165D01*
G01X980154Y643218D02*
X980554D01*
Y636718D01*
X980054D01*
G01X981828Y636606D02*
X981428D01*
Y643106D01*
X981928D01*
G01X985928Y636606D02*
X986428D01*
Y643106D01*
X985928D01*
G01X1027780Y688360D02*
Y699360D01*
X979780D01*
Y688360D01*
X1027780D01*
G01X1001216Y466986D02*
X998116D01*
Y467945D01*
X998272Y468252D01*
X998478Y468443D01*
X998891Y468520D01*
X999305Y468443D01*
X999563Y468213D01*
X999718Y467945D01*
Y466986D01*
G01Y467945D02*
X1001216Y468520D01*
G01Y471313D02*
X998116D01*
X1000338Y469895D01*
Y471812D01*
G01X998116Y473953D02*
X998220Y473646D01*
X998478Y473416D01*
X998788Y473263D01*
X999202Y473148D01*
X999666Y473110D01*
X1000131Y473148D01*
X1000545Y473263D01*
X1000855Y473416D01*
X1001113Y473646D01*
X1001216Y473953D01*
X1001113Y474260D01*
X1000855Y474490D01*
X1000545Y474643D01*
X1000131Y474758D01*
X999666Y474797D01*
X999202Y474758D01*
X998788Y474643D01*
X998478Y474490D01*
X998220Y474260D01*
X998116Y473953D01*
G01X1001568Y486107D02*
X1001968D01*
Y479607D01*
X1001468D01*
G01X997468Y486107D02*
X996968D01*
Y479607D01*
X997468D01*
G01X994480Y479345D02*
X994980D01*
Y485845D01*
X994480D01*
G01X1000578Y535291D02*
Y536686D01*
X999812Y538391D01*
G01X1001345D02*
X1000578Y536686D01*
G01X1003678Y535291D02*
Y538391D01*
X1003218Y537771D01*
G01Y535291D02*
X1004138D01*
G01X992719Y575681D02*
Y576081D01*
X999219D01*
Y575581D01*
G01X992719Y571581D02*
Y571081D01*
X999219D01*
Y571581D01*
G01X999989Y645992D02*
X1002989D01*
Y641992D01*
G01X993989Y645992D02*
X990989D01*
Y641992D01*
G01X995439Y655492D02*
X995132Y655544D01*
X994864Y655751D01*
X994634Y656061D01*
X994480Y656422D01*
X994404Y656836D01*
Y657249D01*
X994480Y657662D01*
X994634Y658024D01*
X994864Y658334D01*
X995132Y658541D01*
X995439Y658592D01*
X995745Y658541D01*
X996014Y658334D01*
X996244Y658024D01*
X996397Y657662D01*
X996474Y657249D01*
Y656836D01*
X996397Y656422D01*
X996244Y656061D01*
X996014Y655751D01*
X995745Y655544D01*
X995439Y655492D01*
G01X995745Y656319D02*
X996206Y655492D01*
G01X997810Y658076D02*
X998041Y658386D01*
X998309Y658541D01*
X998616Y658592D01*
X998999Y658489D01*
X999267Y658231D01*
X999344Y657921D01*
X999306Y657611D01*
X999152Y657352D01*
X998386Y656836D01*
X998041Y656474D01*
X997810Y655957D01*
X997734Y655492D01*
X999344D01*
G01X1015541Y489107D02*
X1018541D01*
Y485107D01*
G01X1009541Y489107D02*
X1006541D01*
Y485107D01*
G01X1010991Y498607D02*
X1010684Y498658D01*
X1010416Y498865D01*
X1010186Y499175D01*
X1010032Y499537D01*
X1009956Y499950D01*
Y500364D01*
X1010032Y500777D01*
X1010186Y501139D01*
X1010416Y501448D01*
X1010684Y501655D01*
X1010991Y501707D01*
X1011297Y501655D01*
X1011566Y501448D01*
X1011796Y501139D01*
X1011949Y500777D01*
X1012026Y500364D01*
Y499950D01*
X1011949Y499537D01*
X1011796Y499175D01*
X1011566Y498865D01*
X1011297Y498658D01*
X1010991Y498607D01*
G01X1011297Y499434D02*
X1011758Y498607D01*
G01X1013439Y498968D02*
X1013707Y498710D01*
X1014014Y498607D01*
X1014321Y498710D01*
X1014589Y499020D01*
X1014781Y499485D01*
X1014858Y499950D01*
Y500518D01*
X1014781Y500983D01*
X1014589Y501397D01*
X1014359Y501603D01*
X1014091Y501707D01*
X1013784Y501603D01*
X1013554Y501397D01*
X1013401Y501087D01*
X1013324Y500673D01*
X1013401Y500312D01*
X1013592Y499950D01*
X1013822Y499743D01*
X1014091Y499692D01*
X1014397Y499795D01*
X1014627Y500053D01*
X1014858Y500518D01*
G01X1020344Y507886D02*
X1020114Y508041D01*
X1019846Y508144D01*
X1019540D01*
X1019194Y507989D01*
X1018926Y507731D01*
X1018734Y507421D01*
X1018581Y506904D01*
X1018543Y506439D01*
X1018620Y505974D01*
X1018734Y505664D01*
X1018964Y505354D01*
X1019233Y505147D01*
X1019501Y505044D01*
X1019770D01*
X1020038Y505147D01*
X1020268Y505302D01*
X1020460Y505509D01*
G01X1022601Y505044D02*
Y508144D01*
X1022141Y507524D01*
G01Y505044D02*
X1023061D01*
G01X1025701Y508144D02*
X1025394Y508041D01*
X1025164Y507782D01*
X1025011Y507472D01*
X1024896Y507059D01*
X1024858Y506594D01*
X1024896Y506129D01*
X1025011Y505716D01*
X1025164Y505406D01*
X1025394Y505147D01*
X1025701Y505044D01*
X1026008Y505147D01*
X1026238Y505406D01*
X1026391Y505716D01*
X1026506Y506129D01*
X1026544Y506594D01*
X1026506Y507059D01*
X1026391Y507472D01*
X1026238Y507782D01*
X1026008Y508041D01*
X1025701Y508144D01*
G01X1017533Y514841D02*
Y515241D01*
X1024033D01*
Y514741D01*
G01X1017533Y510741D02*
Y510241D01*
X1024033D01*
Y510741D01*
G01X1024054Y519926D02*
X1012054D01*
Y550926D01*
X1038054D01*
Y519926D01*
X1026554D01*
G01X1020431Y557040D02*
Y556640D01*
X1013931D01*
Y557140D01*
G01X1020431Y561140D02*
Y561640D01*
X1013931D01*
Y561140D01*
G01X1011583Y564643D02*
Y567743D01*
X1012541D01*
X1012848Y567588D01*
X1013039Y567381D01*
X1013116Y566968D01*
X1013039Y566555D01*
X1012809Y566297D01*
X1012541Y566142D01*
X1011583D01*
G01X1012541D02*
X1013116Y564643D01*
G01X1014721Y567226D02*
X1014951Y567536D01*
X1015219Y567692D01*
X1015526Y567743D01*
X1015909Y567640D01*
X1016178Y567381D01*
X1016254Y567072D01*
X1016216Y566762D01*
X1016062Y566503D01*
X1015296Y565986D01*
X1014951Y565625D01*
X1014721Y565108D01*
X1014644Y564643D01*
X1016254D01*
G01X1018549D02*
Y567743D01*
X1018089Y567123D01*
G01Y564643D02*
X1019009D01*
G01X1012688Y621347D02*
X1009588D01*
Y622306D01*
X1009743Y622612D01*
X1009950Y622804D01*
X1010363Y622881D01*
X1010777Y622804D01*
X1011035Y622574D01*
X1011190Y622306D01*
Y621347D01*
G01Y622306D02*
X1012688Y622881D01*
G01X1010105Y624486D02*
X1009795Y624716D01*
X1009640Y624984D01*
X1009588Y625291D01*
X1009692Y625674D01*
X1009950Y625942D01*
X1010260Y626019D01*
X1010570Y625981D01*
X1010828Y625827D01*
X1011345Y625061D01*
X1011707Y624716D01*
X1012224Y624486D01*
X1012688Y624409D01*
Y626019D01*
G01X1012327Y627662D02*
X1012585Y627931D01*
X1012688Y628237D01*
X1012585Y628544D01*
X1012275Y628812D01*
X1011810Y629004D01*
X1011345Y629081D01*
X1010777D01*
X1010312Y629004D01*
X1009898Y628812D01*
X1009692Y628582D01*
X1009588Y628314D01*
X1009692Y628007D01*
X1009898Y627777D01*
X1010208Y627624D01*
X1010622Y627547D01*
X1010983Y627624D01*
X1011345Y627816D01*
X1011552Y628046D01*
X1011603Y628314D01*
X1011500Y628621D01*
X1011242Y628851D01*
X1010777Y629081D01*
G01X1017904Y621347D02*
X1014804D01*
Y622306D01*
X1014959Y622612D01*
X1015165Y622804D01*
X1015579Y622881D01*
X1015992Y622804D01*
X1016250Y622574D01*
X1016405Y622306D01*
Y621347D01*
G01Y622306D02*
X1017904Y622881D01*
G01X1017284Y624371D02*
X1017645Y624601D01*
X1017852Y624907D01*
X1017904Y625252D01*
X1017852Y625559D01*
X1017594Y625866D01*
X1017284Y626057D01*
X1016974Y626096D01*
X1016612Y626019D01*
X1016354Y625751D01*
X1016250Y625482D01*
Y625137D01*
G01Y625482D02*
X1016095Y625712D01*
X1015837Y625904D01*
X1015527Y625981D01*
X1015217Y625904D01*
X1014959Y625712D01*
X1014804Y625367D01*
X1014855Y625022D01*
X1015062Y624677D01*
G01X1017904Y628314D02*
X1014804D01*
X1015424Y627854D01*
G01X1017904D02*
Y628774D01*
G01X1013290Y642767D02*
X1013690D01*
Y636267D01*
X1013190D01*
G01X1009190Y642767D02*
X1008690D01*
Y636267D01*
X1009190D01*
G01X1015399Y636455D02*
X1014999D01*
Y642955D01*
X1015499D01*
G01X1019499Y636455D02*
X1019999D01*
Y642955D01*
X1019499D01*
G01X1027886Y466986D02*
X1024786D01*
Y467945D01*
X1024942Y468252D01*
X1025148Y468443D01*
X1025561Y468520D01*
X1025975Y468443D01*
X1026233Y468213D01*
X1026388Y467945D01*
Y466986D01*
G01Y467945D02*
X1027886Y468520D01*
G01Y471313D02*
X1024786D01*
X1027008Y469895D01*
Y471812D01*
G01X1025303Y473225D02*
X1024993Y473455D01*
X1024838Y473723D01*
X1024786Y474030D01*
X1024890Y474413D01*
X1025148Y474682D01*
X1025458Y474758D01*
X1025768Y474720D01*
X1026026Y474566D01*
X1026543Y473800D01*
X1026905Y473455D01*
X1027422Y473225D01*
X1027886Y473148D01*
Y474758D01*
G01X1024642Y479795D02*
X1024242D01*
Y486295D01*
X1024742D01*
G01X1028742Y479795D02*
X1029242D01*
Y486295D01*
X1028742D01*
G01X1036238Y487008D02*
X1035738D01*
Y480508D01*
X1036238D01*
G01X1026554Y519926D02*
G03X1024054I-1250J242D01*
G01X1032896Y645991D02*
X1035896D01*
Y641991D01*
G01X1026896Y645991D02*
X1023896D01*
Y641991D01*
G01X1028346Y655491D02*
X1028040Y655543D01*
X1027771Y655750D01*
X1027541Y656060D01*
X1027388Y656421D01*
X1027311Y656835D01*
Y657248D01*
X1027388Y657661D01*
X1027541Y658023D01*
X1027771Y658333D01*
X1028040Y658540D01*
X1028346Y658591D01*
X1028653Y658540D01*
X1028921Y658333D01*
X1029151Y658023D01*
X1029305Y657661D01*
X1029381Y657248D01*
Y656835D01*
X1029305Y656421D01*
X1029151Y656060D01*
X1028921Y655750D01*
X1028653Y655543D01*
X1028346Y655491D01*
G01X1028653Y656318D02*
X1029113Y655491D01*
G01X1031906D02*
Y658591D01*
X1030488Y656370D01*
X1032405D01*
G01X1042400Y456030D02*
X1110680D01*
Y421470D01*
X1042400D01*
Y456030D01*
G01X1039806Y467433D02*
X1036706D01*
Y468391D01*
X1036861Y468698D01*
X1037068Y468890D01*
X1037481Y468966D01*
X1037894Y468890D01*
X1038153Y468660D01*
X1038308Y468391D01*
Y467433D01*
G01Y468391D02*
X1039806Y468966D01*
G01Y471760D02*
X1036706D01*
X1038928Y470341D01*
Y472258D01*
G01X1039806Y474323D02*
X1039134Y474400D01*
X1038566Y474515D01*
X1038049Y474668D01*
X1037481Y474860D01*
X1036706Y475166D01*
Y473633D01*
G01X1040338Y487008D02*
X1040738D01*
Y480508D01*
X1040238D01*
G01X1048762Y489331D02*
X1045762D01*
Y485331D01*
G01X1048662Y498831D02*
X1048355Y498883D01*
X1048087Y499090D01*
X1047857Y499400D01*
X1047703Y499761D01*
X1047627Y500174D01*
Y500588D01*
X1047703Y501001D01*
X1047857Y501363D01*
X1048087Y501673D01*
X1048355Y501880D01*
X1048662Y501931D01*
X1048968Y501880D01*
X1049237Y501673D01*
X1049467Y501363D01*
X1049620Y501001D01*
X1049697Y500588D01*
Y500174D01*
X1049620Y499761D01*
X1049467Y499400D01*
X1049237Y499090D01*
X1048968Y498883D01*
X1048662Y498831D01*
G01X1048968Y499658D02*
X1049428Y498831D01*
G01X1051762D02*
Y501931D01*
X1051302Y501311D01*
G01Y498831D02*
X1052222D01*
G01X1054133Y501415D02*
X1054363Y501724D01*
X1054632Y501880D01*
X1054938Y501931D01*
X1055322Y501828D01*
X1055590Y501570D01*
X1055667Y501260D01*
X1055628Y500950D01*
X1055475Y500691D01*
X1054708Y500174D01*
X1054363Y499813D01*
X1054133Y499296D01*
X1054057Y498831D01*
X1055667D01*
G01X1042693Y554374D02*
X1042463Y554529D01*
X1042195Y554632D01*
X1041888D01*
X1041543Y554477D01*
X1041275Y554219D01*
X1041083Y553909D01*
X1040930Y553392D01*
X1040892Y552927D01*
X1040968Y552462D01*
X1041083Y552152D01*
X1041313Y551842D01*
X1041582Y551635D01*
X1041850Y551532D01*
X1042118D01*
X1042387Y551635D01*
X1042617Y551790D01*
X1042808Y551997D01*
G01X1044873Y551532D02*
X1044950Y552204D01*
X1045065Y552772D01*
X1045218Y553289D01*
X1045410Y553857D01*
X1045717Y554632D01*
X1044183D01*
G01X1040041Y557045D02*
Y560145D01*
X1040999D01*
X1041306Y559990D01*
X1041497Y559783D01*
X1041574Y559370D01*
X1041497Y558956D01*
X1041267Y558698D01*
X1040999Y558543D01*
X1040041D01*
G01X1040999D02*
X1041574Y557045D01*
G01X1043907D02*
Y560145D01*
X1043447Y559525D01*
G01Y557045D02*
X1044367D01*
G01X1046356Y557406D02*
X1046624Y557148D01*
X1046930Y557045D01*
X1047237Y557148D01*
X1047506Y557458D01*
X1047697Y557923D01*
X1047774Y558388D01*
Y558956D01*
X1047697Y559421D01*
X1047506Y559835D01*
X1047275Y560042D01*
X1047007Y560145D01*
X1046700Y560042D01*
X1046470Y559835D01*
X1046317Y559525D01*
X1046240Y559111D01*
X1046317Y558750D01*
X1046509Y558388D01*
X1046739Y558181D01*
X1047007Y558130D01*
X1047314Y558233D01*
X1047544Y558491D01*
X1047774Y558956D01*
G01X1040041Y562855D02*
Y565955D01*
X1040999D01*
X1041306Y565800D01*
X1041497Y565594D01*
X1041574Y565180D01*
X1041497Y564767D01*
X1041267Y564509D01*
X1040999Y564354D01*
X1040041D01*
G01X1040999D02*
X1041574Y562855D01*
G01X1043179Y565438D02*
X1043409Y565748D01*
X1043677Y565904D01*
X1043984Y565955D01*
X1044367Y565852D01*
X1044636Y565594D01*
X1044712Y565284D01*
X1044674Y564974D01*
X1044520Y564715D01*
X1043754Y564198D01*
X1043409Y563837D01*
X1043179Y563320D01*
X1043102Y562855D01*
X1044712D01*
G01X1046164Y563475D02*
X1046394Y563114D01*
X1046700Y562907D01*
X1047046Y562855D01*
X1047352Y562907D01*
X1047659Y563165D01*
X1047850Y563475D01*
X1047889Y563785D01*
X1047812Y564147D01*
X1047544Y564405D01*
X1047275Y564509D01*
X1046930D01*
G01X1047275D02*
X1047506Y564664D01*
X1047697Y564922D01*
X1047774Y565232D01*
X1047697Y565542D01*
X1047506Y565800D01*
X1047160Y565955D01*
X1046816Y565904D01*
X1046470Y565697D01*
G01X1051243Y583103D02*
X1048243D01*
Y579103D01*
G01X1051279Y620752D02*
X1048179D01*
Y621710D01*
X1048334Y622017D01*
X1048541Y622209D01*
X1048954Y622286D01*
X1049368Y622209D01*
X1049626Y621979D01*
X1049781Y621710D01*
Y620752D01*
G01Y621710D02*
X1051279Y622286D01*
G01X1050659Y623776D02*
X1051021Y624005D01*
X1051228Y624312D01*
X1051279Y624657D01*
X1051228Y624964D01*
X1050969Y625270D01*
X1050659Y625462D01*
X1050349Y625501D01*
X1049988Y625424D01*
X1049729Y625156D01*
X1049626Y624887D01*
Y624542D01*
G01Y624887D02*
X1049471Y625117D01*
X1049213Y625309D01*
X1048903Y625386D01*
X1048592Y625309D01*
X1048334Y625117D01*
X1048179Y624772D01*
X1048231Y624427D01*
X1048438Y624082D01*
G01X1048696Y626990D02*
X1048386Y627220D01*
X1048231Y627489D01*
X1048179Y627796D01*
X1048282Y628179D01*
X1048541Y628447D01*
X1048851Y628524D01*
X1049161Y628485D01*
X1049419Y628332D01*
X1049936Y627566D01*
X1050298Y627220D01*
X1050814Y626990D01*
X1051279Y626914D01*
Y628524D01*
G01X1045468Y620752D02*
X1042368D01*
Y621710D01*
X1042523Y622017D01*
X1042729Y622209D01*
X1043143Y622286D01*
X1043556Y622209D01*
X1043814Y621979D01*
X1043969Y621710D01*
Y620752D01*
G01Y621710D02*
X1045468Y622286D01*
G01X1044848Y623776D02*
X1045209Y624005D01*
X1045416Y624312D01*
X1045468Y624657D01*
X1045416Y624964D01*
X1045158Y625270D01*
X1044848Y625462D01*
X1044538Y625501D01*
X1044176Y625424D01*
X1043918Y625156D01*
X1043814Y624887D01*
Y624542D01*
G01Y624887D02*
X1043659Y625117D01*
X1043401Y625309D01*
X1043091Y625386D01*
X1042781Y625309D01*
X1042523Y625117D01*
X1042368Y624772D01*
X1042419Y624427D01*
X1042626Y624082D01*
G01X1044848Y626876D02*
X1045209Y627105D01*
X1045416Y627412D01*
X1045468Y627757D01*
X1045416Y628064D01*
X1045158Y628370D01*
X1044848Y628562D01*
X1044538Y628600D01*
X1044176Y628524D01*
X1043918Y628256D01*
X1043814Y627987D01*
Y627642D01*
G01Y627987D02*
X1043659Y628217D01*
X1043401Y628409D01*
X1043091Y628485D01*
X1042781Y628409D01*
X1042523Y628217D01*
X1042368Y627872D01*
X1042419Y627527D01*
X1042626Y627182D01*
G01X1048132Y636011D02*
X1047732D01*
Y642511D01*
X1048232D01*
G01X1045523Y642317D02*
X1045923D01*
Y635817D01*
X1045423D01*
G01X1041423Y642317D02*
X1040923D01*
Y635817D01*
X1041423D01*
G01X1047232Y664854D02*
X1047542Y665046D01*
X1047749Y665276D01*
X1047852Y665544D01*
X1047749Y665851D01*
X1047542Y666081D01*
X1047232Y666311D01*
X1046819Y666388D01*
X1044752D01*
G01X1047852Y668721D02*
X1044752D01*
X1045372Y668261D01*
G01X1047852D02*
Y669181D01*
G01Y671821D02*
X1044752D01*
X1045372Y671361D01*
G01X1047852D02*
Y672281D01*
G01X1111600Y678970D02*
X1043320D01*
Y713530D01*
X1111600D01*
Y678970D01*
G01X1052720Y446640D02*
Y435640D01*
X1100720D01*
Y446640D01*
X1052720D01*
G01X1063646Y468178D02*
X1060546D01*
Y469136D01*
X1060702Y469443D01*
X1060908Y469635D01*
X1061321Y469712D01*
X1061735Y469635D01*
X1061993Y469405D01*
X1062148Y469136D01*
Y468178D01*
G01Y469136D02*
X1063646Y469712D01*
G01Y472505D02*
X1060546D01*
X1062768Y471086D01*
Y473003D01*
G01X1063182Y474302D02*
X1063440Y474531D01*
X1063595Y474800D01*
X1063646Y475145D01*
X1063543Y475490D01*
X1063336Y475758D01*
X1062975Y475950D01*
X1062561Y475988D01*
X1062148Y475911D01*
X1061890Y475720D01*
X1061683Y475451D01*
X1061632Y475183D01*
X1061683Y474915D01*
X1061890Y474570D01*
X1060546Y474685D01*
Y475720D01*
G01X1061609Y481598D02*
X1061209D01*
Y488098D01*
X1061709D01*
G01X1065709Y481598D02*
X1066209D01*
Y488098D01*
X1065709D01*
G01X1054762Y489331D02*
X1057762D01*
Y485331D01*
G01X1051501Y555270D02*
Y555670D01*
X1058001D01*
Y555170D01*
G01X1051501Y551170D02*
Y550670D01*
X1058001D01*
Y551170D01*
G01X1057849Y556814D02*
Y556414D01*
X1051349D01*
Y556914D01*
G01X1057849Y560914D02*
Y561414D01*
X1051349D01*
Y560914D01*
G01X1051313Y567101D02*
Y567501D01*
X1057813D01*
Y567001D01*
G01X1051313Y563001D02*
Y562501D01*
X1057813D01*
Y563001D01*
G01X1051850Y595703D02*
Y593481D01*
X1052003Y593016D01*
X1052310Y592706D01*
X1052693Y592603D01*
X1053077Y592706D01*
X1053383Y593016D01*
X1053536Y593481D01*
Y595703D01*
G01X1054950Y593223D02*
X1055180Y592861D01*
X1055486Y592654D01*
X1055832Y592603D01*
X1056138Y592654D01*
X1056445Y592913D01*
X1056636Y593223D01*
X1056675Y593533D01*
X1056598Y593894D01*
X1056330Y594153D01*
X1056062Y594256D01*
X1055717D01*
G01X1056062D02*
X1056292Y594411D01*
X1056483Y594669D01*
X1056560Y594979D01*
X1056483Y595290D01*
X1056292Y595548D01*
X1055947Y595703D01*
X1055602Y595651D01*
X1055257Y595444D01*
G01X1057243Y583103D02*
X1060243D01*
Y579103D01*
G01X1052232Y636011D02*
X1052732D01*
Y642511D01*
X1052232D01*
G01X1060936Y645767D02*
X1057936D01*
Y641767D01*
G01X1062386Y655267D02*
X1062079Y655319D01*
X1061811Y655525D01*
X1061581Y655835D01*
X1061427Y656197D01*
X1061351Y656610D01*
Y657023D01*
X1061427Y657437D01*
X1061581Y657798D01*
X1061811Y658108D01*
X1062079Y658315D01*
X1062386Y658367D01*
X1062692Y658315D01*
X1062961Y658108D01*
X1063191Y657798D01*
X1063344Y657437D01*
X1063421Y657023D01*
Y656610D01*
X1063344Y656197D01*
X1063191Y655835D01*
X1062961Y655525D01*
X1062692Y655319D01*
X1062386Y655267D01*
G01X1062692Y656094D02*
X1063152Y655267D01*
G01X1064642Y655732D02*
X1064872Y655473D01*
X1065141Y655319D01*
X1065486Y655267D01*
X1065831Y655370D01*
X1066099Y655577D01*
X1066291Y655938D01*
X1066329Y656352D01*
X1066252Y656765D01*
X1066061Y657023D01*
X1065792Y657230D01*
X1065524Y657282D01*
X1065256Y657230D01*
X1064911Y657023D01*
X1065026Y658367D01*
X1066061D01*
G01X1101280Y688360D02*
Y699360D01*
X1053280D01*
Y688360D01*
X1101280D01*
G01X1072139Y469966D02*
X1069039D01*
Y470924D01*
X1069194Y471231D01*
X1069400Y471423D01*
X1069814Y471500D01*
X1070227Y471423D01*
X1070485Y471193D01*
X1070640Y470924D01*
Y469966D01*
G01Y470924D02*
X1072139Y471500D01*
G01Y474293D02*
X1069039D01*
X1071260Y472874D01*
Y474791D01*
G01X1072139Y476933D02*
X1069039D01*
X1069659Y476473D01*
G01X1072139D02*
Y477393D01*
G01X1073022Y487909D02*
X1073422D01*
Y481409D01*
X1072922D01*
G01X1068922Y487909D02*
X1068422D01*
Y481409D01*
X1068922D01*
G01X1082348Y489331D02*
X1079348D01*
Y485331D01*
G01X1069364Y504906D02*
X1069134Y505061D01*
X1068866Y505164D01*
X1068560D01*
X1068214Y505009D01*
X1067946Y504751D01*
X1067754Y504441D01*
X1067601Y503924D01*
X1067563Y503459D01*
X1067640Y502994D01*
X1067754Y502684D01*
X1067984Y502374D01*
X1068253Y502168D01*
X1068521Y502064D01*
X1068790D01*
X1069058Y502168D01*
X1069288Y502323D01*
X1069480Y502529D01*
G01X1071621Y502064D02*
Y505164D01*
X1071161Y504544D01*
G01Y502064D02*
X1072081D01*
G01X1073878Y502529D02*
X1074108Y502271D01*
X1074376Y502116D01*
X1074721Y502064D01*
X1075066Y502168D01*
X1075334Y502374D01*
X1075526Y502736D01*
X1075565Y503149D01*
X1075488Y503563D01*
X1075296Y503821D01*
X1075028Y504028D01*
X1074760Y504079D01*
X1074491Y504028D01*
X1074146Y503821D01*
X1074261Y505164D01*
X1075296D01*
G01X1070288Y515324D02*
Y518424D01*
X1071246D01*
X1071553Y518269D01*
X1071744Y518063D01*
X1071821Y517649D01*
X1071744Y517236D01*
X1071514Y516978D01*
X1071246Y516823D01*
X1070288D01*
G01X1071246D02*
X1071821Y515324D01*
G01X1074154D02*
Y518424D01*
X1073694Y517804D01*
G01Y515324D02*
X1074614D01*
G01X1077714D02*
Y518424D01*
X1076296Y516203D01*
X1078213D01*
G01X1068648Y508174D02*
Y511274D01*
X1069607D01*
X1069914Y511119D01*
X1070105Y510912D01*
X1070182Y510499D01*
X1070105Y510085D01*
X1069875Y509827D01*
X1069607Y509672D01*
X1068648D01*
G01X1069607D02*
X1070182Y508174D01*
G01X1072515D02*
Y511274D01*
X1072055Y510654D01*
G01Y508174D02*
X1072975D01*
G01X1074772Y508638D02*
X1075002Y508380D01*
X1075270Y508225D01*
X1075615Y508174D01*
X1075960Y508277D01*
X1076228Y508484D01*
X1076420Y508845D01*
X1076458Y509259D01*
X1076382Y509672D01*
X1076190Y509930D01*
X1075922Y510137D01*
X1075654Y510188D01*
X1075385Y510137D01*
X1075040Y509930D01*
X1075155Y511274D01*
X1076190D01*
G01X1076992Y540655D02*
Y543755D01*
X1077950D01*
X1078257Y543600D01*
X1078449Y543394D01*
X1078526Y542980D01*
X1078449Y542567D01*
X1078219Y542309D01*
X1077950Y542154D01*
X1076992D01*
G01X1077950D02*
X1078526Y540655D01*
G01X1080207Y541017D02*
X1080475Y540758D01*
X1080782Y540655D01*
X1081089Y540758D01*
X1081357Y541068D01*
X1081549Y541534D01*
X1081626Y541998D01*
Y542567D01*
X1081549Y543032D01*
X1081357Y543445D01*
X1081127Y543652D01*
X1080859Y543755D01*
X1080552Y543652D01*
X1080322Y543445D01*
X1080169Y543135D01*
X1080092Y542722D01*
X1080169Y542360D01*
X1080360Y541998D01*
X1080590Y541792D01*
X1080859Y541740D01*
X1081165Y541844D01*
X1081396Y542102D01*
X1081626Y542567D01*
G01X1075650Y534546D02*
Y537646D01*
X1076609D01*
X1076916Y537491D01*
X1077107Y537284D01*
X1077184Y536871D01*
X1077107Y536458D01*
X1076877Y536199D01*
X1076609Y536044D01*
X1075650D01*
G01X1076609D02*
X1077184Y534546D01*
G01X1079517D02*
Y537646D01*
X1079057Y537026D01*
G01Y534546D02*
X1079977D01*
G01X1082617Y537646D02*
X1082310Y537543D01*
X1082080Y537284D01*
X1081927Y536974D01*
X1081812Y536561D01*
X1081774Y536096D01*
X1081812Y535631D01*
X1081927Y535218D01*
X1082080Y534908D01*
X1082310Y534649D01*
X1082617Y534546D01*
X1082924Y534649D01*
X1083154Y534908D01*
X1083307Y535218D01*
X1083422Y535631D01*
X1083460Y536096D01*
X1083422Y536561D01*
X1083307Y536974D01*
X1083154Y537284D01*
X1082924Y537543D01*
X1082617Y537646D01*
G01X1077260Y556162D02*
X1077030Y556317D01*
X1076762Y556420D01*
X1076456D01*
X1076110Y556265D01*
X1075842Y556007D01*
X1075650Y555697D01*
X1075497Y555180D01*
X1075459Y554715D01*
X1075536Y554250D01*
X1075650Y553940D01*
X1075880Y553630D01*
X1076149Y553423D01*
X1076417Y553320D01*
X1076686D01*
X1076954Y553423D01*
X1077184Y553578D01*
X1077376Y553785D01*
G01X1078674D02*
X1078904Y553527D01*
X1079172Y553372D01*
X1079517Y553320D01*
X1079862Y553423D01*
X1080130Y553630D01*
X1080322Y553992D01*
X1080360Y554405D01*
X1080284Y554818D01*
X1080092Y555077D01*
X1079824Y555283D01*
X1079556Y555335D01*
X1079287Y555283D01*
X1078942Y555077D01*
X1079057Y556420D01*
X1080092D01*
G01X1071990Y561528D02*
Y561928D01*
X1078490D01*
Y561428D01*
G01X1071990Y557428D02*
Y556928D01*
X1078490D01*
Y557428D01*
G01X1076693Y576265D02*
Y579365D01*
X1077652D01*
X1077958Y579210D01*
X1078150Y579004D01*
X1078227Y578590D01*
X1078150Y578177D01*
X1077920Y577919D01*
X1077652Y577764D01*
X1076693D01*
G01X1077652D02*
X1078227Y576265D01*
G01X1080560D02*
Y579365D01*
X1080100Y578745D01*
G01Y576265D02*
X1081020D01*
G01X1083660D02*
Y579365D01*
X1083200Y578745D01*
G01Y576265D02*
X1084120D01*
G01X1077438Y582374D02*
Y585474D01*
X1078397D01*
X1078704Y585319D01*
X1078895Y585113D01*
X1078972Y584699D01*
X1078895Y584286D01*
X1078665Y584028D01*
X1078397Y583873D01*
X1077438D01*
G01X1078397D02*
X1078972Y582374D01*
G01X1081305D02*
X1081574Y582426D01*
X1081880Y582581D01*
X1082072Y582839D01*
X1082148Y583201D01*
X1082072Y583563D01*
X1081842Y583873D01*
X1081497Y584028D01*
X1081114D01*
X1080884Y584131D01*
X1080692Y584389D01*
X1080615Y584751D01*
X1080730Y585113D01*
X1080998Y585371D01*
X1081305Y585474D01*
X1081612Y585371D01*
X1081880Y585113D01*
X1081995Y584751D01*
X1081918Y584389D01*
X1081727Y584131D01*
X1081497Y584028D01*
X1081114D01*
X1080768Y583873D01*
X1080538Y583563D01*
X1080462Y583201D01*
X1080538Y582839D01*
X1080730Y582581D01*
X1081037Y582426D01*
X1081305Y582374D01*
G01X1078184Y605766D02*
Y608866D01*
X1079142D01*
X1079449Y608711D01*
X1079640Y608504D01*
X1079717Y608091D01*
X1079640Y607678D01*
X1079410Y607419D01*
X1079142Y607264D01*
X1078184D01*
G01X1079142D02*
X1079717Y605766D01*
G01X1082050D02*
Y608866D01*
X1081590Y608246D01*
G01Y605766D02*
X1082510D01*
G01X1084422Y607058D02*
X1084690Y607419D01*
X1084920Y607626D01*
X1085227Y607729D01*
X1085495Y607626D01*
X1085687Y607419D01*
X1085840Y607109D01*
X1085879Y606748D01*
X1085840Y606438D01*
X1085687Y606128D01*
X1085457Y605869D01*
X1085189Y605766D01*
X1084882Y605869D01*
X1084614Y606179D01*
X1084460Y606644D01*
X1084422Y607161D01*
X1084499Y607833D01*
X1084614Y608194D01*
X1084805Y608556D01*
X1085074Y608814D01*
X1085342Y608866D01*
X1085610Y608763D01*
X1085802Y608504D01*
G01X1077438Y610386D02*
Y613486D01*
X1078397D01*
X1078704Y613331D01*
X1078895Y613124D01*
X1078972Y612711D01*
X1078895Y612298D01*
X1078665Y612039D01*
X1078397Y611884D01*
X1077438D01*
G01X1078397D02*
X1078972Y610386D01*
G01X1081305D02*
Y613486D01*
X1080845Y612866D01*
G01Y610386D02*
X1081765D01*
G01X1083562Y611006D02*
X1083792Y610644D01*
X1084099Y610438D01*
X1084444Y610386D01*
X1084750Y610438D01*
X1085057Y610696D01*
X1085249Y611006D01*
X1085287Y611316D01*
X1085210Y611678D01*
X1084942Y611936D01*
X1084674Y612039D01*
X1084328D01*
G01X1084674D02*
X1084904Y612194D01*
X1085095Y612453D01*
X1085172Y612763D01*
X1085095Y613073D01*
X1084904Y613331D01*
X1084558Y613486D01*
X1084214Y613434D01*
X1083868Y613228D01*
G01X1078751Y618740D02*
X1078521Y618896D01*
X1078253Y618999D01*
X1077946D01*
X1077601Y618844D01*
X1077333Y618586D01*
X1077141Y618275D01*
X1076988Y617759D01*
X1076949Y617294D01*
X1077026Y616829D01*
X1077141Y616519D01*
X1077371Y616209D01*
X1077639Y616002D01*
X1077908Y615899D01*
X1078176D01*
X1078444Y616002D01*
X1078674Y616157D01*
X1078866Y616364D01*
G01X1081008Y615899D02*
Y618999D01*
X1080548Y618379D01*
G01Y615899D02*
X1081468D01*
G01X1084568D02*
Y618999D01*
X1083149Y616777D01*
X1085066D01*
G01X1078694Y623135D02*
X1075594D01*
Y624094D01*
X1075750Y624400D01*
X1075956Y624592D01*
X1076369Y624669D01*
X1076783Y624592D01*
X1077041Y624362D01*
X1077196Y624094D01*
Y623135D01*
G01Y624094D02*
X1078694Y624669D01*
G01X1078074Y626159D02*
X1078436Y626389D01*
X1078643Y626695D01*
X1078694Y627040D01*
X1078643Y627347D01*
X1078384Y627654D01*
X1078074Y627845D01*
X1077764Y627884D01*
X1077403Y627807D01*
X1077144Y627539D01*
X1077041Y627270D01*
Y626925D01*
G01Y627270D02*
X1076886Y627500D01*
X1076628Y627692D01*
X1076318Y627769D01*
X1076008Y627692D01*
X1075750Y627500D01*
X1075594Y627155D01*
X1075646Y626810D01*
X1075853Y626465D01*
G01X1077403Y629374D02*
X1077041Y629642D01*
X1076834Y629872D01*
X1076731Y630179D01*
X1076834Y630447D01*
X1077041Y630639D01*
X1077351Y630792D01*
X1077713Y630830D01*
X1078023Y630792D01*
X1078333Y630639D01*
X1078591Y630409D01*
X1078694Y630140D01*
X1078591Y629834D01*
X1078281Y629565D01*
X1077816Y629412D01*
X1077299Y629374D01*
X1076628Y629450D01*
X1076266Y629565D01*
X1075904Y629757D01*
X1075646Y630025D01*
X1075594Y630294D01*
X1075698Y630562D01*
X1075956Y630754D01*
G01X1079560Y642994D02*
X1079960D01*
Y636494D01*
X1079460D01*
G01X1075460Y642994D02*
X1074960D01*
Y636494D01*
X1075460D01*
G01X1066936Y645767D02*
X1069936D01*
Y641767D01*
G01X1098660Y468327D02*
X1095560D01*
Y469285D01*
X1095715Y469592D01*
X1095922Y469784D01*
X1096335Y469860D01*
X1096748Y469784D01*
X1097007Y469554D01*
X1097162Y469285D01*
Y468327D01*
G01Y469285D02*
X1098660Y469860D01*
G01Y472654D02*
X1095560D01*
X1097782Y471235D01*
Y473152D01*
G01X1098660Y475754D02*
X1095560D01*
X1097782Y474335D01*
Y476252D01*
G01X1095420Y479569D02*
X1095020D01*
Y486069D01*
X1095520D01*
G01X1088348Y489331D02*
X1091348D01*
Y485331D01*
G01X1089865Y502148D02*
Y501648D01*
X1096365D01*
Y502148D01*
G01X1082248Y498831D02*
X1081942Y498883D01*
X1081673Y499090D01*
X1081443Y499400D01*
X1081290Y499761D01*
X1081213Y500174D01*
Y500588D01*
X1081290Y501001D01*
X1081443Y501363D01*
X1081673Y501673D01*
X1081942Y501880D01*
X1082248Y501931D01*
X1082555Y501880D01*
X1082823Y501673D01*
X1083053Y501363D01*
X1083207Y501001D01*
X1083283Y500588D01*
Y500174D01*
X1083207Y499761D01*
X1083053Y499400D01*
X1082823Y499090D01*
X1082555Y498883D01*
X1082248Y498831D01*
G01X1082555Y499658D02*
X1083015Y498831D01*
G01X1085348D02*
Y501931D01*
X1084888Y501311D01*
G01Y498831D02*
X1085808D01*
G01X1088448Y501931D02*
X1088142Y501828D01*
X1087912Y501570D01*
X1087758Y501260D01*
X1087643Y500846D01*
X1087605Y500381D01*
X1087643Y499916D01*
X1087758Y499503D01*
X1087912Y499193D01*
X1088142Y498934D01*
X1088448Y498831D01*
X1088755Y498934D01*
X1088985Y499193D01*
X1089138Y499503D01*
X1089253Y499916D01*
X1089292Y500381D01*
X1089253Y500846D01*
X1089138Y501260D01*
X1088985Y501570D01*
X1088755Y501828D01*
X1088448Y501931D01*
G01X1095899Y514340D02*
Y513940D01*
X1089399D01*
Y514440D01*
G01X1089486Y512762D02*
Y513162D01*
X1095986D01*
Y512662D01*
G01X1089486Y508662D02*
Y508162D01*
X1095986D01*
Y508662D01*
G01X1089865Y506248D02*
Y506648D01*
X1096365D01*
Y506148D01*
G01X1092462Y522626D02*
Y527626D01*
X1093729D01*
X1094236Y527376D01*
X1094616Y527043D01*
X1094932Y526543D01*
X1095186Y525960D01*
X1095249Y525126D01*
X1095186Y524293D01*
X1094932Y523710D01*
X1094616Y523210D01*
X1094236Y522876D01*
X1093729Y522626D01*
X1092462D01*
G01X1098956D02*
X1098449Y522710D01*
X1098006Y523043D01*
X1097626Y523543D01*
X1097372Y524126D01*
X1097246Y524793D01*
Y525460D01*
X1097372Y526126D01*
X1097626Y526710D01*
X1098006Y527210D01*
X1098449Y527543D01*
X1098956Y527626D01*
X1099462Y527543D01*
X1099906Y527210D01*
X1100286Y526710D01*
X1100539Y526126D01*
X1100666Y525460D01*
Y524793D01*
X1100539Y524126D01*
X1100286Y523543D01*
X1099906Y523043D01*
X1099462Y522710D01*
X1098956Y522626D01*
G01X1102156Y527626D02*
X1103042Y522626D01*
X1104056Y527626D01*
X1105069Y522626D01*
X1105956Y527626D01*
G01X1107699Y522626D02*
Y527626D01*
X1110612Y522626D01*
Y527626D01*
G01X1095899Y518440D02*
Y518940D01*
X1089399D01*
Y518440D01*
G01X1095974Y541532D02*
Y541132D01*
X1089474D01*
Y541632D01*
G01X1095974Y545632D02*
Y546132D01*
X1089474D01*
Y545632D01*
G01X1089418Y539176D02*
Y539576D01*
X1095918D01*
Y539076D01*
G01X1089418Y535076D02*
Y534576D01*
X1095918D01*
Y535076D01*
G01X1095144Y567558D02*
Y563974D01*
X1095398Y563224D01*
X1095904Y562724D01*
X1096538Y562558D01*
X1097171Y562724D01*
X1097678Y563224D01*
X1097931Y563974D01*
Y567558D01*
G01X1100371Y562558D02*
Y567558D01*
X1101891D01*
X1102398Y567308D01*
X1102778Y566724D01*
X1102904Y566058D01*
X1102778Y565391D01*
X1102461Y564891D01*
X1101891Y564641D01*
X1100371D01*
G01X1089492Y577242D02*
Y576742D01*
X1095992D01*
Y577242D01*
G01X1096049Y582432D02*
Y582032D01*
X1089549D01*
Y582532D01*
G01X1096049Y586532D02*
Y587032D01*
X1089549D01*
Y586532D01*
G01X1089492Y581342D02*
Y581742D01*
X1095992D01*
Y581242D01*
G01X1082755Y600337D02*
Y595337D01*
X1085288D01*
G01X1090388D02*
X1087855D01*
Y600337D01*
X1090388D01*
G01X1089375Y597920D02*
X1087855D01*
G01X1093018Y595337D02*
Y600337D01*
X1095425D01*
G01X1094538Y597920D02*
X1093018D01*
G01X1099322Y600337D02*
Y595337D01*
G01X1097865Y600337D02*
X1100778D01*
G01X1089568Y604732D02*
Y604232D01*
X1096068D01*
Y604732D01*
G01X1095974Y610145D02*
Y609745D01*
X1089474D01*
Y610245D01*
G01X1095974Y614245D02*
Y614745D01*
X1089474D01*
Y614245D01*
G01X1089568Y608832D02*
Y609232D01*
X1096068D01*
Y608732D01*
G01X1084804Y622390D02*
X1081704D01*
Y623348D01*
X1081859Y623655D01*
X1082065Y623847D01*
X1082479Y623924D01*
X1082892Y623847D01*
X1083150Y623617D01*
X1083305Y623348D01*
Y622390D01*
G01Y623348D02*
X1084804Y623924D01*
G01X1084184Y625414D02*
X1084545Y625643D01*
X1084752Y625950D01*
X1084804Y626295D01*
X1084752Y626602D01*
X1084494Y626908D01*
X1084184Y627100D01*
X1083874Y627138D01*
X1083512Y627062D01*
X1083254Y626794D01*
X1083150Y626525D01*
Y626180D01*
G01Y626525D02*
X1082995Y626755D01*
X1082737Y626947D01*
X1082427Y627024D01*
X1082117Y626947D01*
X1081859Y626755D01*
X1081704Y626410D01*
X1081755Y626065D01*
X1081962Y625720D01*
G01X1084442Y628705D02*
X1084700Y628973D01*
X1084804Y629280D01*
X1084700Y629587D01*
X1084390Y629855D01*
X1083925Y630047D01*
X1083460Y630124D01*
X1082892D01*
X1082427Y630047D01*
X1082014Y629855D01*
X1081807Y629625D01*
X1081704Y629357D01*
X1081807Y629050D01*
X1082014Y628820D01*
X1082324Y628667D01*
X1082737Y628590D01*
X1083099Y628667D01*
X1083460Y628858D01*
X1083667Y629088D01*
X1083719Y629357D01*
X1083615Y629663D01*
X1083357Y629894D01*
X1082892Y630124D01*
G01X1089568Y619634D02*
Y620034D01*
X1096068D01*
Y619534D01*
G01X1089568Y615534D02*
Y615034D01*
X1096068D01*
Y615534D01*
G01X1082122Y636682D02*
X1081722D01*
Y643182D01*
X1082222D01*
G01X1086222Y636682D02*
X1086722D01*
Y643182D01*
X1086222D01*
G01X1094070Y645994D02*
X1091070D01*
Y641994D01*
G01X1089013Y663577D02*
Y668577D01*
X1090596D01*
X1091103Y668327D01*
X1091420Y667994D01*
X1091546Y667327D01*
X1091420Y666660D01*
X1091040Y666244D01*
X1090596Y665994D01*
X1089013D01*
G01X1090596D02*
X1091546Y663577D01*
G01X1094620Y668577D02*
X1096140D01*
G01X1095380D02*
Y663577D01*
G01X1094620D02*
X1096140D01*
G01X1100860Y666077D02*
X1102126D01*
Y664577D01*
X1101746Y664077D01*
X1101303Y663744D01*
X1100670Y663577D01*
X1100036Y663744D01*
X1099593Y664077D01*
X1099213Y664577D01*
X1098960Y665160D01*
X1098833Y665827D01*
Y666410D01*
X1098960Y666910D01*
X1099213Y667494D01*
X1099593Y667994D01*
X1099973Y668327D01*
X1100480Y668577D01*
X1100923D01*
X1101430Y668411D01*
X1101810Y668077D01*
G01X1104250Y663577D02*
Y668577D01*
G01X1106910D02*
Y663577D01*
G01Y666077D02*
X1104250D01*
G01X1110680Y668577D02*
Y663577D01*
G01X1109223Y668577D02*
X1112136D01*
G01X1095520Y655494D02*
X1095213Y655545D01*
X1094945Y655752D01*
X1094715Y656062D01*
X1094562Y656424D01*
X1094485Y656837D01*
Y657250D01*
X1094562Y657664D01*
X1094715Y658025D01*
X1094945Y658335D01*
X1095213Y658542D01*
X1095520Y658594D01*
X1095827Y658542D01*
X1096095Y658335D01*
X1096325Y658025D01*
X1096478Y657664D01*
X1096555Y657250D01*
Y656837D01*
X1096478Y656424D01*
X1096325Y656062D01*
X1096095Y655752D01*
X1095827Y655545D01*
X1095520Y655494D01*
G01X1095827Y656320D02*
X1096287Y655494D01*
G01X1098620D02*
X1098888Y655545D01*
X1099195Y655700D01*
X1099387Y655958D01*
X1099463Y656320D01*
X1099387Y656682D01*
X1099157Y656992D01*
X1098812Y657147D01*
X1098428D01*
X1098198Y657250D01*
X1098007Y657508D01*
X1097930Y657870D01*
X1098045Y658232D01*
X1098313Y658490D01*
X1098620Y658594D01*
X1098927Y658490D01*
X1099195Y658232D01*
X1099310Y657870D01*
X1099233Y657508D01*
X1099042Y657250D01*
X1098812Y657147D01*
X1098428D01*
X1098083Y656992D01*
X1097853Y656682D01*
X1097777Y656320D01*
X1097853Y655958D01*
X1098045Y655700D01*
X1098352Y655545D01*
X1098620Y655494D01*
G01X1099520Y479569D02*
X1100020D01*
Y486069D01*
X1099520D01*
G01X1108942Y514430D02*
Y501766D01*
X1108196D01*
X1106855Y503107D01*
Y504000D01*
X1108196Y505342D01*
X1110133D01*
X1111176Y504299D01*
Y503555D01*
X1109537Y501916D01*
G01X1106643Y496129D02*
X1106835Y495819D01*
X1107065Y495612D01*
X1107333Y495509D01*
X1107640Y495612D01*
X1107870Y495819D01*
X1108100Y496129D01*
X1108176Y496542D01*
Y498609D01*
G01X1109781Y496800D02*
X1110050Y497162D01*
X1110280Y497369D01*
X1110586Y497472D01*
X1110855Y497369D01*
X1111046Y497162D01*
X1111200Y496852D01*
X1111238Y496490D01*
X1111200Y496180D01*
X1111046Y495870D01*
X1110816Y495612D01*
X1110548Y495509D01*
X1110241Y495612D01*
X1109973Y495922D01*
X1109820Y496387D01*
X1109781Y496904D01*
X1109858Y497575D01*
X1109973Y497937D01*
X1110165Y498299D01*
X1110433Y498557D01*
X1110701Y498609D01*
X1110970Y498506D01*
X1111161Y498247D01*
G01X1111921Y533652D02*
Y558683D01*
X1108643Y555404D01*
Y551532D01*
X1111921Y554810D01*
Y558683D01*
X1115050Y555554D01*
Y553915D01*
X1113858Y552724D01*
X1112070Y554512D01*
Y554958D01*
G01X1101875Y554834D02*
X1102067Y554524D01*
X1102297Y554317D01*
X1102565Y554214D01*
X1102872Y554317D01*
X1103102Y554524D01*
X1103332Y554834D01*
X1103409Y555247D01*
Y557314D01*
G01X1104899Y554679D02*
X1105129Y554421D01*
X1105397Y554266D01*
X1105742Y554214D01*
X1106087Y554317D01*
X1106355Y554524D01*
X1106547Y554886D01*
X1106585Y555299D01*
X1106509Y555712D01*
X1106317Y555971D01*
X1106049Y556177D01*
X1105780Y556229D01*
X1105512Y556177D01*
X1105167Y555971D01*
X1105282Y557314D01*
X1106317D01*
G01X1102470Y597596D02*
X1102662Y597286D01*
X1102892Y597079D01*
X1103160Y596976D01*
X1103467Y597079D01*
X1103697Y597286D01*
X1103927Y597596D01*
X1104004Y598009D01*
Y600076D01*
G01X1106797Y596976D02*
Y600076D01*
X1105379Y597854D01*
X1107296D01*
G01X1106344Y628141D02*
X1106536Y627831D01*
X1106766Y627624D01*
X1107034Y627521D01*
X1107341Y627624D01*
X1107571Y627831D01*
X1107801Y628141D01*
X1107878Y628554D01*
Y630621D01*
G01X1110134Y627521D02*
X1110211Y628192D01*
X1110326Y628761D01*
X1110479Y629278D01*
X1110671Y629846D01*
X1110978Y630621D01*
X1109444D01*
G01X1100070Y645994D02*
X1103070D01*
Y641994D01*
G01X1116285Y438032D02*
X1116785Y438349D01*
X1117119Y438729D01*
X1117285Y439172D01*
X1117119Y439679D01*
X1116785Y440059D01*
X1116285Y440439D01*
X1115619Y440565D01*
X1112285D01*
G01X1117285Y444399D02*
X1112285D01*
X1113285Y443639D01*
G01X1117285D02*
Y445159D01*
G01Y450259D02*
X1112285D01*
X1115868Y447915D01*
Y451082D01*
G01X1142500Y517500D02*
X1117500D01*
Y482500D01*
X1142500D01*
Y517500D01*
G01Y567500D02*
X1117500D01*
Y532500D01*
X1142500D01*
Y567500D01*
G01Y617500D02*
X1117500D01*
Y582500D01*
X1142500D01*
Y617500D01*
G01Y667500D02*
X1117500D01*
Y632500D01*
X1142500D01*
Y667500D01*
G01X1129800Y431100D02*
Y433600D01*
X1129480Y433100D01*
G01Y431100D02*
X1130120D01*
G01X1126983Y463100D02*
Y460000D01*
X1128517D01*
G01X1130083D02*
Y463100D01*
X1131042D01*
X1131348Y462945D01*
X1131540Y462738D01*
X1131617Y462325D01*
X1131540Y461912D01*
X1131310Y461653D01*
X1131042Y461498D01*
X1130083D01*
G01X1131042D02*
X1131617Y460000D01*
G01X1133950D02*
Y463100D01*
X1133490Y462480D01*
G01Y460000D02*
X1134410D01*
G01X1129800Y700100D02*
Y702600D01*
X1129480Y702100D01*
G01Y700100D02*
X1130120D01*
G01X1141400Y446300D02*
Y443800D01*
G01X1140787Y446300D02*
X1142013D01*
G01X1143067Y443800D02*
Y446300D01*
X1143707D01*
X1143920Y446175D01*
X1144080Y445883D01*
X1144133Y445550D01*
X1144080Y445217D01*
X1143947Y444967D01*
X1143707Y444842D01*
X1143067D01*
G01X1145213Y444300D02*
X1145373Y444008D01*
X1145587Y443842D01*
X1145827Y443800D01*
X1146040Y443842D01*
X1146253Y444050D01*
X1146387Y444300D01*
X1146413Y444550D01*
X1146360Y444842D01*
X1146173Y445050D01*
X1145987Y445133D01*
X1145747D01*
G01X1145987D02*
X1146147Y445258D01*
X1146280Y445467D01*
X1146333Y445717D01*
X1146280Y445967D01*
X1146147Y446175D01*
X1145907Y446300D01*
X1145667Y446258D01*
X1145427Y446092D01*
G01X1141400Y715300D02*
Y712800D01*
G01X1140787Y715300D02*
X1142013D01*
G01X1143067Y712800D02*
Y715300D01*
X1143707D01*
X1143920Y715175D01*
X1144080Y714883D01*
X1144133Y714550D01*
X1144080Y714217D01*
X1143947Y713967D01*
X1143707Y713842D01*
X1143067D01*
G01X1145293Y714883D02*
X1145453Y715133D01*
X1145640Y715258D01*
X1145853Y715300D01*
X1146120Y715217D01*
X1146307Y715008D01*
X1146360Y714758D01*
X1146333Y714508D01*
X1146227Y714300D01*
X1145693Y713883D01*
X1145453Y713592D01*
X1145293Y713175D01*
X1145240Y712800D01*
X1146360D01*
M02*
