G04 ================== begin FILE IDENTIFICATION RECORD ==================*
G04 Layout Name:  E:/prj_hardware/circle_led/PCB/CIRCLELED.brd*
G04 Film Name:    topsolder*
G04 File Format:  Gerber RS274X*
G04 File Origin:  Cadence Allegro 16.3-p003*
G04 Origin Date:  Mon Jul 23 16:47:02 2018*
G04 *
G04 Layer:  PIN/SOLDERMASK_TOP*
G04 Layer:  BOARD GEOMETRY/OUTLINE*
G04 Layer:  VIA CLASS/SOLDERMASK_TOP*
G04 Layer:  PACKAGE GEOMETRY/SOLDERMASK_TOP*
G04 Layer:  BOARD GEOMETRY/SOLDERMASK_TOP*
G04 *
G04 Offset:    (0.000 0.000)*
G04 Mirror:    No*
G04 Mode:      Positive*
G04 Rotation:  0*
G04 FullContactRelief:  No*
G04 UndefLineWidth:     5.000*
G04 ================== end FILE IDENTIFICATION RECORD ====================*
%FSLAX55Y55*MOIN*%
%IR0*IPPOS*OFA0.00000B0.00000*MIA0B0*SFA1.00000B1.00000*%
%ADD11C,.1*%
%ADD10C,.2*%
%ADD25C,.12*%
%ADD15C,.16*%
%ADD18R,.14X.088*%
%ADD26R,.04X.05*%
%ADD19R,.05X.04*%
%ADD27R,.04X.048*%
%ADD17R,.08X.08*%
%ADD14R,.09X.07*%
%ADD13C,.05*%
%ADD22C,.08*%
%ADD12R,.065X.085*%
%ADD30R,.089X.072*%
%ADD21C,.075*%
%ADD20C,.093*%
%ADD23R,.133831X.212571*%
%ADD16R,.212571X.133831*%
%ADD24R,.095X.095*%
%ADD29R,.023618X.07874*%
%ADD28R,.07874X.023618*%
%ADD31C,.01*%
G75*
%LPD*%
G75*
G54D10*
X793000Y432000D03*
Y701000D03*
X1141000Y432000D03*
Y701000D03*
G54D20*
X842569Y495574D03*
X852569D03*
G54D11*
X816052Y495943D03*
X806052D03*
Y515943D03*
X816052D03*
X826052Y495943D03*
Y515943D03*
X882254Y500696D03*
Y510696D03*
Y520696D03*
Y530696D03*
Y540696D03*
Y550696D03*
Y560696D03*
Y570696D03*
Y580696D03*
G54D21*
X844283Y532007D03*
X854283D03*
G54D30*
X1017054Y524426D03*
Y546426D03*
X1033054Y524426D03*
Y546426D03*
G54D12*
X811460Y544160D03*
X820560D03*
X829660D03*
G54D31*
G01X779806Y669590D02*
Y709264D01*
X784988Y714446D01*
X1150492D01*
X1153872Y711066D01*
Y423442D01*
X1150266Y419836D01*
X782623D01*
X779806Y422653D01*
Y671394D01*
X779917Y671506D01*
G54D22*
X834426Y683482D03*
X844426D03*
X844442Y675596D03*
X834363Y675506D03*
X1120000Y485000D03*
Y515000D03*
Y535000D03*
Y565000D03*
Y585000D03*
Y615000D03*
Y635000D03*
Y665000D03*
X1140000Y485000D03*
Y515000D03*
Y535000D03*
Y565000D03*
Y585000D03*
Y615000D03*
Y635000D03*
Y665000D03*
G54D13*
X802971Y544160D03*
X811988Y658958D03*
X815798Y644570D03*
X857869Y512930D03*
X856651Y574216D03*
X845215Y628116D03*
X864883Y497892D03*
X873223Y516067D03*
X870541Y525156D03*
X862054Y636680D03*
X862260Y641809D03*
X862034Y663223D03*
X861428Y657814D03*
X891252Y510408D03*
X896466Y506981D03*
X900270Y527989D03*
X892969Y636684D03*
X897662Y648678D03*
X911501Y476157D03*
X910030Y531268D03*
X911221Y536704D03*
X904814Y546689D03*
X906799Y556001D03*
X912712Y549967D03*
X909920Y588443D03*
X919416Y493273D03*
X918779Y549592D03*
X923398Y554584D03*
X945312Y477806D03*
X942944Y595398D03*
X940975Y600251D03*
X936402Y612769D03*
X941538Y631175D03*
X953710Y492851D03*
X948751Y612631D03*
X965750Y521251D03*
X970503Y536763D03*
X965590Y563400D03*
X967091Y551082D03*
X967542Y555775D03*
X968769Y573243D03*
X968064Y581330D03*
X966648Y598391D03*
X963796Y632607D03*
X978054Y631164D03*
X983038Y476884D03*
X992480Y490795D03*
X984226Y522828D03*
X987504Y574176D03*
X1001543Y577904D03*
X1000989Y633252D03*
X1016541Y476458D03*
X1013188Y512741D03*
X1011190Y631386D03*
X1026247Y492080D03*
X1030517Y512741D03*
X1034736Y554212D03*
X1033896Y631593D03*
X1043862Y575703D03*
X1044233Y584503D03*
X1041649Y631543D03*
X1055762Y477020D03*
X1063709Y493038D03*
X1063348Y553170D03*
X1067936Y632554D03*
X1078490Y565184D03*
X1075715Y630203D03*
X1089348Y476958D03*
X1089865Y500131D03*
X1097520Y490838D03*
X1095992Y574017D03*
X1096068Y621770D03*
X1089568Y622458D03*
X1102085Y504148D03*
X1101983Y510662D03*
X1100749Y537076D03*
X1101270Y606732D03*
X1101070Y633104D03*
X1120000Y460000D03*
G54D23*
X850995Y456687D03*
G54D14*
X813930Y652910D03*
X827930D03*
X842651Y566578D03*
X856651D03*
G54D24*
X882254Y590696D03*
G54D15*
X814623Y695482D03*
X864230D03*
G54D16*
X833790Y438576D03*
X833238Y464797D03*
G54D25*
X906680Y441140D03*
X922040D03*
X907240Y693860D03*
X922600D03*
X937400Y441140D03*
X937960Y693860D03*
X952760Y441140D03*
X953320Y693860D03*
X980180Y441140D03*
X980740Y693860D03*
X995540Y441140D03*
X996100Y693860D03*
X1010900Y441140D03*
X1011460Y693860D03*
X1026260Y441140D03*
X1026820Y693860D03*
X1053680Y441140D03*
X1054240Y693860D03*
X1069040Y441140D03*
X1069600Y693860D03*
X1084400Y441140D03*
X1084960Y693860D03*
X1099760Y441140D03*
X1100320Y693860D03*
G54D17*
X828527Y438665D03*
X827932Y464815D03*
X831954Y438739D03*
X838435D03*
X834934D03*
X833593Y464815D03*
X831359Y464890D03*
X838808D03*
X836350Y464964D03*
X851249Y459376D03*
Y452149D03*
Y455428D03*
Y462206D03*
G54D26*
X895328Y486107D03*
Y479607D03*
X899003Y636684D03*
Y643184D03*
X907500Y637168D03*
X914346Y637054D03*
X907500Y643668D03*
X914346Y643554D03*
X929365Y486558D03*
Y480058D03*
X919447Y480020D03*
Y486520D03*
X936402Y602041D03*
Y608541D03*
X941538Y636492D03*
X947424Y636308D03*
X941538Y642992D03*
X947424Y642808D03*
X953710Y479796D03*
Y486296D03*
X961652Y529849D03*
Y523349D03*
X948751Y608279D03*
Y601779D03*
X964980Y486558D03*
Y480058D03*
X992480Y479345D03*
Y485845D03*
X978713Y530371D03*
Y523871D03*
X978054Y636718D03*
X983928Y636606D03*
X978054Y643218D03*
X983928Y643106D03*
X999468Y486107D03*
Y479607D03*
X1011190Y636267D03*
X1017499Y636455D03*
X1011190Y642767D03*
X1017499Y642955D03*
X1026742Y479795D03*
Y486295D03*
X1038238Y487008D03*
Y480508D03*
X1050232Y636011D03*
X1043423Y635817D03*
X1050232Y642511D03*
X1043423Y642317D03*
X1063709Y481598D03*
Y488098D03*
X1070922Y487909D03*
Y481409D03*
X1077460Y636494D03*
Y642994D03*
X1097520Y479569D03*
Y486069D03*
X1084222Y636682D03*
Y643182D03*
G54D27*
X903501Y481707D03*
X911501D03*
X907501Y490507D03*
X924464Y638818D03*
X932464D03*
X928464Y647618D03*
X937312Y482158D03*
X945312D03*
X941312Y490958D03*
X955796Y638592D03*
X959796Y647392D03*
X973603Y482158D03*
X977603Y490958D03*
X963796Y638592D03*
X981603Y482158D03*
X992989Y638592D03*
X1000989D03*
X996989Y647392D03*
X1008541Y481707D03*
X1016541D03*
X1012541Y490507D03*
X1025896Y638591D03*
X1033896D03*
X1029896Y647391D03*
X1047762Y481931D03*
X1051762Y490731D03*
X1050243Y575703D03*
X1055762Y481931D03*
X1058243Y575703D03*
X1054243Y584503D03*
X1059936Y638367D03*
X1063936Y647167D03*
X1081348Y481931D03*
X1067936Y638367D03*
X1089348Y481931D03*
X1085348Y490731D03*
X1093070Y638594D03*
X1097070Y647394D03*
X1101070Y638594D03*
G54D18*
X820560Y569160D03*
G54D28*
X933692Y551589D03*
Y553558D03*
Y555526D03*
Y557495D03*
Y559463D03*
Y561432D03*
Y563400D03*
Y565369D03*
Y567338D03*
Y569306D03*
Y571274D03*
Y573243D03*
Y575212D03*
Y577180D03*
Y579148D03*
Y581117D03*
X977786Y563400D03*
Y561432D03*
Y559463D03*
Y557495D03*
Y555526D03*
Y553558D03*
Y551589D03*
Y577180D03*
Y575212D03*
Y573243D03*
Y571274D03*
Y569306D03*
Y567338D03*
Y565369D03*
Y581117D03*
Y579148D03*
G54D19*
X828833Y644570D03*
X822333D03*
X844679Y512930D03*
X851179D03*
X844679Y552377D03*
X851179D03*
X856952Y636680D03*
X850452D03*
X856952Y641809D03*
X850452D03*
X850357Y652234D03*
X856857D03*
X850472Y646937D03*
X856972D03*
X856784Y663223D03*
X850284D03*
X856897Y657814D03*
X850397D03*
X897361Y532756D03*
X897582Y541106D03*
X898033Y560267D03*
X898295Y551476D03*
X898033Y569058D03*
X898259Y588443D03*
X898033Y580103D03*
X903861Y532756D03*
X904082Y541106D03*
X904533Y560267D03*
X904795Y551476D03*
X904533Y569058D03*
X904759Y588443D03*
X904533Y580103D03*
X992719Y573581D03*
X999219D03*
X1017533Y512741D03*
X1020431Y559140D03*
X1013931D03*
X1024033Y512741D03*
X1051501Y553170D03*
X1051349Y558914D03*
X1051313Y565001D03*
X1058001Y553170D03*
X1057849Y558914D03*
X1057813Y565001D03*
X1071990Y559428D03*
X1078490D03*
X1089865Y504148D03*
X1096365D03*
X1095899Y516440D03*
X1089399D03*
X1089486Y510662D03*
X1095986D03*
X1095974Y543632D03*
X1089474D03*
X1089418Y537076D03*
X1095918D03*
X1089492Y579242D03*
X1095992D03*
X1096049Y584532D03*
X1089549D03*
X1089568Y606732D03*
X1096068D03*
X1095974Y612245D03*
X1089474D03*
X1089568Y617534D03*
X1096068D03*
G54D29*
X946880Y544306D03*
X944912D03*
X942944D03*
X940975D03*
Y588400D03*
X942944D03*
X944912D03*
X946880D03*
X960660Y544306D03*
X958692D03*
X956723D03*
X954754D03*
X952786D03*
X950818D03*
X948849D03*
Y588400D03*
X950818D03*
X952786D03*
X954754D03*
X956723D03*
X958692D03*
X960660D03*
X970503Y544306D03*
X968534D03*
X966566D03*
X964597D03*
X962629D03*
Y588400D03*
X964597D03*
X966566D03*
X968534D03*
X970503D03*
M02*
